# Blender v2.79 (sub 0) OBJ File: ''
# www.blender.org
mtllib trin_pilocrap_fender_f.mtl
o fender_F
v -0.062500 -0.125000 -0.906250
v -0.062500 -0.125000 -0.468750
v 0.031250 -0.125000 -0.468750
v 0.031250 -0.125000 -0.906250
v 0.015625 -0.281250 -0.906250
v 0.015625 -0.281250 -0.593750
v -0.062500 -0.281250 -0.593750
v -0.062500 -0.281250 -0.906250
v -0.062500 0.187500 -0.906250
v -0.062500 0.187500 0.781250
v 0.031250 0.187500 0.781250
v 0.031250 0.187500 -0.906250
v 0.031250 -0.062500 -0.906250
v 0.031250 -0.062500 0.781250
v -0.062500 -0.062500 0.781250
v -0.062500 -0.062500 -0.906250
v -0.062500 0.437500 -0.906250
v -0.062500 0.437500 -0.468750
v 0.000000 0.437500 -0.468750
v 0.000000 0.437500 -0.906250
v 0.031250 0.187500 -0.906250
v 0.031250 0.187500 -0.468750
v -0.062500 0.187500 -0.468750
v -0.062500 0.187500 -0.906250
v -0.062500 -0.062500 -0.906250
v -0.062500 -0.062500 -0.312500
v 0.031250 -0.062500 -0.312500
v 0.031250 -0.062500 -0.906250
v 0.031250 -0.125000 -0.906250
v 0.031250 -0.125000 -0.468750
v -0.062500 -0.125000 -0.468750
v -0.062500 -0.125000 -0.906250
v -0.062500 -0.281250 -0.906250
v -0.062500 -0.281250 -0.593750
v 0.015625 -0.281250 -0.593750
v 0.015625 -0.281250 -0.906250
v 0.000000 -0.437500 -0.906250
v 0.000000 -0.437500 -0.656250
v -0.062500 -0.437500 -0.656250
v -0.062500 -0.437500 -0.906250
v -0.062500 0.437500 -0.468750
v -0.062500 0.375000 0.781250
v 0.000000 0.375000 0.781250
v 0.000000 0.437500 -0.468750
v 0.031250 0.187500 -0.468750
v 0.031250 0.187500 0.781250
v -0.062500 0.187500 0.781250
v -0.062500 0.187500 -0.468750
v -0.062500 -0.062500 0.125000
v -0.062500 -0.062500 0.781250
v 0.031250 -0.062500 0.781250
v 0.031250 -0.062500 0.125000
v 0.031250 -0.125000 0.281250
v 0.031250 -0.125000 0.781250
v -0.062500 -0.125000 0.781250
v -0.062500 -0.125000 0.281250
v -0.062500 -0.125000 0.281250
v -0.062500 -0.125000 0.781250
v 0.031250 -0.125000 0.781250
v 0.031250 -0.125000 0.281250
v 0.015625 -0.281250 0.406250
v 0.015625 -0.281250 0.781250
v -0.062500 -0.281250 0.781250
v -0.062500 -0.281250 0.406250
v -0.062500 -0.281250 0.406250
v -0.062500 -0.281250 0.781250
v 0.015625 -0.281250 0.781250
v 0.015625 -0.281250 0.406250
v 0.000000 -0.437500 0.437500
v 0.000000 -0.375000 0.781250
v -0.062500 -0.375000 0.781250
v -0.062500 -0.437500 0.437500
v -0.062500 -0.281250 0.781250
v -0.125000 -0.281250 0.906250
v -0.046875 -0.281250 0.906250
v 0.015625 -0.281250 0.781250
v 0.000000 -0.375000 0.781250
v -0.062500 -0.343750 0.906250
v -0.125000 -0.343750 0.906250
v -0.062500 -0.375000 0.781250
v -0.062500 -0.125000 0.781250
v -0.125000 -0.125000 0.906250
v -0.031250 -0.125000 0.906250
v 0.031250 -0.125000 0.781250
v 0.015625 -0.281250 0.781250
v -0.046875 -0.281250 0.906250
v -0.125000 -0.281250 0.906250
v -0.062500 -0.281250 0.781250
v -0.062500 0.187500 0.781250
v -0.125000 0.187500 0.906250
v -0.031250 0.187500 0.906250
v 0.031250 0.187500 0.781250
v 0.031250 -0.125000 0.781250
v -0.031250 -0.125000 0.906250
v -0.125000 -0.125000 0.906250
v -0.062500 -0.125000 0.781250
v -0.062500 0.375000 0.781250
v -0.125000 0.312500 0.906250
v -0.062500 0.312500 0.906250
v 0.000000 0.375000 0.781250
v 0.031250 0.187500 0.781250
v -0.031250 0.187500 0.906250
v -0.125000 0.187500 0.906250
v -0.062500 0.187500 0.781250
vt 1.863281 0.984375
vt 1.873047 0.984375
vt 1.873047 0.992188
vt 1.863281 0.992188
vt 1.873047 0.984375
vt 1.882812 0.984375
vt 1.882812 0.992188
vt 1.873047 0.992188
vt 1.863281 0.968750
vt 1.873047 0.968750
vt 1.884766 0.984375
vt 1.875000 0.984375
vt 1.875000 0.968750
vt 1.884766 0.968750
vt 1.861328 0.984375
vt 1.861328 0.968750
vt 1.003906 0.921875
vt 1.056641 0.921875
vt 1.056641 0.929688
vt 1.003906 0.929688
vt 1.056641 0.921875
vt 1.109375 0.921875
vt 1.109375 0.929688
vt 1.056641 0.929688
vt 1.003906 0.890625
vt 1.056641 0.890625
vt 1.111328 0.921875
vt 1.058594 0.921875
vt 1.058594 0.890625
vt 1.111328 0.890625
vt 1.001953 0.921875
vt 1.001953 0.890625
vt 1.894531 0.984375
vt 1.908203 0.984375
vt 1.908203 0.992188
vt 1.894531 0.992188
vt 1.908203 0.984375
vt 1.921875 0.984375
vt 1.921875 0.992188
vt 1.908203 0.992188
vt 1.894531 0.953125
vt 1.908203 0.953125
vt 1.923828 0.984375
vt 1.910156 0.984375
vt 1.910156 0.953125
vt 1.923828 0.953125
vt 1.892578 0.984375
vt 1.892578 0.953125
vt 1.941406 0.984375
vt 1.958984 0.984375
vt 1.958984 0.992188
vt 1.941406 0.992188
vt 1.958984 0.984375
vt 1.976562 0.984375
vt 1.976562 0.992188
vt 1.958984 0.992188
vt 1.941406 0.976562
vt 1.958984 0.976562
vt 1.978516 0.984375
vt 1.960938 0.984375
vt 1.960938 0.976562
vt 1.978516 0.976562
vt 1.939453 0.984375
vt 1.939453 0.976562
vt 1.128906 0.921875
vt 1.136719 0.921875
vt 1.136719 0.929688
vt 1.128906 0.929688
vt 1.136719 0.921875
vt 1.144531 0.921875
vt 1.144531 0.929688
vt 1.136719 0.929688
vt 1.128906 0.906250
vt 1.136719 0.906250
vt 1.146484 0.921875
vt 1.138672 0.921875
vt 1.138672 0.906250
vt 1.146484 0.906250
vt 1.126953 0.921875
vt 1.126953 0.906250
vt 1.253906 0.921875
vt 1.292969 0.921875
vt 1.292969 0.929688
vt 1.253906 0.929688
vt 1.292969 0.921875
vt 1.332031 0.921875
vt 1.332031 0.929688
vt 1.292969 0.929688
vt 1.253906 0.890625
vt 1.292969 0.890625
vt 1.333984 0.921875
vt 1.294922 0.921875
vt 1.294922 0.890625
vt 1.333984 0.890625
vt 1.251953 0.921875
vt 1.251953 0.890625
vt 1.582031 0.921875
vt 1.601562 0.921875
vt 1.601562 0.929688
vt 1.582031 0.929688
vt 1.601562 0.921875
vt 1.621094 0.921875
vt 1.621094 0.929688
vt 1.601562 0.929688
vt 1.582031 0.914062
vt 1.601562 0.914062
vt 1.623047 0.921875
vt 1.603516 0.921875
vt 1.603516 0.914062
vt 1.623047 0.914062
vt 1.580078 0.921875
vt 1.580078 0.914062
vt 1.628906 0.921875
vt 1.640625 0.921875
vt 1.640625 0.929688
vt 1.628906 0.929688
vt 1.640625 0.921875
vt 1.652344 0.921875
vt 1.652344 0.929688
vt 1.640625 0.929688
vt 1.628906 0.906250
vt 1.640625 0.906250
vt 1.654297 0.921875
vt 1.642578 0.921875
vt 1.642578 0.906250
vt 1.654297 0.906250
vt 1.626953 0.921875
vt 1.626953 0.906250
vt 1.660156 0.921875
vt 1.669922 0.921875
vt 1.669922 0.929688
vt 1.660156 0.929688
vt 1.669922 0.921875
vt 1.679688 0.921875
vt 1.679688 0.929688
vt 1.669922 0.929688
vt 1.660156 0.914062
vt 1.669922 0.914062
vt 1.681641 0.921875
vt 1.671875 0.921875
vt 1.671875 0.914062
vt 1.681641 0.914062
vt 1.658203 0.921875
vt 1.658203 0.914062
vt 1.988281 0.984375
vt 1.992188 0.984375
vt 1.992188 0.992188
vt 1.988281 0.992188
vt 1.992188 0.984375
vt 1.996094 0.984375
vt 1.996094 0.992188
vt 1.992188 0.992188
vt 1.988281 0.976562
vt 1.992188 0.976562
vt 1.998047 0.984375
vt 1.994141 0.984375
vt 1.994141 0.976562
vt 1.998047 0.976562
vt 1.986328 0.984375
vt 1.986328 0.976562
vt 1.691406 0.921875
vt 1.695312 0.921875
vt 1.695312 0.929688
vt 1.691406 0.929688
vt 1.695312 0.921875
vt 1.699219 0.921875
vt 1.699219 0.929688
vt 1.695312 0.929688
vt 1.691406 0.906250
vt 1.695312 0.906250
vt 1.701172 0.921875
vt 1.697266 0.921875
vt 1.697266 0.906250
vt 1.701172 0.906250
vt 1.689453 0.921875
vt 1.689453 0.906250
vt 1.707031 0.921875
vt 1.710938 0.921875
vt 1.710938 0.929688
vt 1.707031 0.929688
vt 1.710938 0.921875
vt 1.714844 0.921875
vt 1.714844 0.929688
vt 1.710938 0.929688
vt 1.707031 0.882812
vt 1.710938 0.882812
vt 1.716797 0.921875
vt 1.712891 0.921875
vt 1.712891 0.882812
vt 1.716797 0.882812
vt 1.705078 0.921875
vt 1.705078 0.882812
vt 1.722656 0.921875
vt 1.726562 0.921875
vt 1.726562 0.929688
vt 1.722656 0.929688
vt 1.726562 0.921875
vt 1.730469 0.921875
vt 1.730469 0.929688
vt 1.726562 0.929688
vt 1.722656 0.898438
vt 1.726562 0.898438
vt 1.732422 0.921875
vt 1.728516 0.921875
vt 1.728516 0.898438
vt 1.732422 0.898438
vt 1.720703 0.921875
vt 1.720703 0.898438
vn 0.0000 1.0000 0.0000
vn 0.0000 -1.0000 -0.0000
vn -1.0000 0.0000 0.0000
vn 0.9950 -0.0995 -0.0000
vn 0.0000 -0.6247 0.7809
vn 0.0000 0.0000 -1.0000
vn 1.0000 0.0000 0.0000
vn 0.0000 -0.0000 1.0000
vn 0.9923 0.1240 0.0000
vn 0.0000 -0.9285 0.3714
vn 0.0000 -0.3714 0.9285
vn 0.0000 0.9988 0.0499
vn 0.9899 0.1414 0.0035
vn 0.0000 -0.9285 -0.3714
vn 0.0000 -0.6247 -0.7809
vn 0.0000 -0.9839 0.1789
vn 0.9924 -0.1227 0.0107
vn 0.0000 -0.1961 -0.9806
vn 0.0000 -0.9701 0.2425
vn -0.8944 0.0000 -0.4472
vn 0.8718 -0.1744 0.4577
vn 0.8909 -0.0891 0.4454
vn 0.8944 -0.0000 0.4472
vn 0.0000 0.8944 0.4472
vn 0.8631 0.1726 0.4747
usemtl ModelMaterial.006
s 1
f 1/1/1 2/2/1 3/3/1 4/4/1
f 5/5/2 6/6/2 7/7/2 8/8/2
f 2/2/3 1/1/3 8/9/3 7/10/3
f 4/11/4 3/12/4 6/13/4 5/14/4
f 3/12/5 2/2/5 7/10/5 6/13/5
f 1/1/6 4/15/6 5/16/6 8/9/6
f 9/17/1 10/18/1 11/19/1 12/20/1
f 13/21/2 14/22/2 15/23/2 16/24/2
f 10/18/3 9/17/3 16/25/3 15/26/3
f 12/27/7 11/28/7 14/29/7 13/30/7
f 11/28/8 10/18/8 15/26/8 14/29/8
f 9/17/6 12/31/6 13/32/6 16/25/6
f 17/33/1 18/34/1 19/35/1 20/36/1
f 21/37/2 22/38/2 23/39/2 24/40/2
f 18/34/3 17/33/3 24/41/3 23/42/3
f 20/43/9 19/44/9 22/45/9 21/46/9
f 19/44/8 18/34/8 23/42/8 22/45/8
f 17/33/6 20/47/6 21/48/6 24/41/6
f 25/49/1 26/50/1 27/51/1 28/52/1
f 29/53/2 30/54/2 31/55/2 32/56/2
f 26/50/3 25/49/3 32/57/3 31/58/3
f 28/59/7 27/60/7 30/61/7 29/62/7
f 27/60/10 26/50/10 31/58/10 30/61/10
f 25/49/6 28/63/6 29/64/6 32/57/6
f 33/65/1 34/66/1 35/67/1 36/68/1
f 37/69/2 38/70/2 39/71/2 40/72/2
f 34/66/3 33/65/3 40/73/3 39/74/3
f 36/75/4 35/76/4 38/77/4 37/78/4
f 35/76/11 34/66/11 39/74/11 38/77/11
f 33/65/6 36/79/6 37/80/6 40/73/6
f 41/81/12 42/82/12 43/83/12 44/84/12
f 45/85/2 46/86/2 47/87/2 48/88/2
f 42/82/3 41/81/3 48/89/3 47/90/3
f 44/91/13 43/92/13 46/93/13 45/94/13
f 43/92/8 42/82/8 47/90/8 46/93/8
f 41/81/6 44/95/6 45/96/6 48/89/6
f 49/97/1 50/98/1 51/99/1 52/100/1
f 53/101/2 54/102/2 55/103/2 56/104/2
f 50/98/3 49/97/3 56/105/3 55/106/3
f 52/107/7 51/108/7 54/109/7 53/110/7
f 51/108/8 50/98/8 55/106/8 54/109/8
f 49/97/14 52/111/14 53/112/14 56/105/14
f 57/113/1 58/114/1 59/115/1 60/116/1
f 61/117/2 62/118/2 63/119/2 64/120/2
f 58/114/3 57/113/3 64/121/3 63/122/3
f 60/123/4 59/124/4 62/125/4 61/126/4
f 59/124/8 58/114/8 63/122/8 62/125/8
f 57/113/15 60/127/15 61/128/15 64/121/15
f 65/129/1 66/130/1 67/131/1 68/132/1
f 69/133/16 70/134/16 71/135/16 72/136/16
f 66/130/3 65/129/3 72/137/3 71/138/3
f 68/139/17 67/140/17 70/141/17 69/142/17
f 67/140/8 66/130/8 71/138/8 70/141/8
f 65/129/18 68/143/18 69/144/18 72/137/18
f 73/145/1 74/146/1 75/147/1 76/148/1
f 77/149/19 78/150/19 79/151/19 80/152/19
f 74/146/20 73/145/20 80/153/20 79/154/20
f 76/155/21 75/156/21 78/157/21 77/158/21
f 75/156/8 74/146/8 79/154/8 78/157/8
f 73/145/6 76/159/6 77/160/6 80/153/6
f 81/161/1 82/162/1 83/163/1 84/164/1
f 85/165/2 86/166/2 87/167/2 88/168/2
f 82/162/20 81/161/20 88/169/20 87/170/20
f 84/171/22 83/172/22 86/173/22 85/174/22
f 83/172/8 82/162/8 87/170/8 86/173/8
f 81/161/6 84/175/6 85/176/6 88/169/6
f 89/177/1 90/178/1 91/179/1 92/180/1
f 93/181/2 94/182/2 95/183/2 96/184/2
f 90/178/20 89/177/20 96/185/20 95/186/20
f 92/187/23 91/188/23 94/189/23 93/190/23
f 91/188/8 90/178/8 95/186/8 94/189/8
f 89/177/6 92/191/6 93/192/6 96/185/6
f 97/193/24 98/194/24 99/195/24 100/196/24
f 101/197/2 102/198/2 103/199/2 104/200/2
f 98/194/20 97/193/20 104/201/20 103/202/20
f 100/203/25 99/204/25 102/205/25 101/206/25
f 99/204/8 98/194/8 103/202/8 102/205/8
f 97/193/6 100/207/6 101/208/6 104/201/6
o fender_F_mirrored
v 0.062500 -0.125000 -0.906250
v 0.062500 -0.125000 -0.468750
v -0.031250 -0.125000 -0.468750
v -0.031250 -0.125000 -0.906250
v -0.015625 -0.281250 -0.906250
v -0.015625 -0.281250 -0.593750
v 0.062500 -0.281250 -0.593750
v 0.062500 -0.281250 -0.906250
v 0.062500 0.187500 -0.906250
v 0.062500 0.187500 0.781250
v -0.031250 0.187500 0.781250
v -0.031250 0.187500 -0.906250
v -0.031250 -0.062500 -0.906250
v -0.031250 -0.062500 0.781250
v 0.062500 -0.062500 0.781250
v 0.062500 -0.062500 -0.906250
v 0.062500 0.437500 -0.906250
v 0.062500 0.437500 -0.468750
v 0.000000 0.437500 -0.468750
v 0.000000 0.437500 -0.906250
v -0.031250 0.187500 -0.906250
v -0.031250 0.187500 -0.468750
v 0.062500 0.187500 -0.468750
v 0.062500 0.187500 -0.906250
v 0.062500 -0.062500 -0.906250
v 0.062500 -0.062500 -0.312500
v -0.031250 -0.062500 -0.312500
v -0.031250 -0.062500 -0.906250
v -0.031250 -0.125000 -0.906250
v -0.031250 -0.125000 -0.468750
v 0.062500 -0.125000 -0.468750
v 0.062500 -0.125000 -0.906250
v 0.062500 -0.281250 -0.906250
v 0.062500 -0.281250 -0.593750
v -0.015625 -0.281250 -0.593750
v -0.015625 -0.281250 -0.906250
v 0.000000 -0.437500 -0.906250
v 0.000000 -0.437500 -0.656250
v 0.062500 -0.437500 -0.656250
v 0.062500 -0.437500 -0.906250
v 0.062500 0.437500 -0.468750
v 0.062500 0.375000 0.781250
v 0.000000 0.375000 0.781250
v 0.000000 0.437500 -0.468750
v -0.031250 0.187500 -0.468750
v -0.031250 0.187500 0.781250
v 0.062500 0.187500 0.781250
v 0.062500 0.187500 -0.468750
v 0.062500 -0.062500 0.125000
v 0.062500 -0.062500 0.781250
v -0.031250 -0.062500 0.781250
v -0.031250 -0.062500 0.125000
v -0.031250 -0.125000 0.281250
v -0.031250 -0.125000 0.781250
v 0.062500 -0.125000 0.781250
v 0.062500 -0.125000 0.281250
v 0.062500 -0.125000 0.281250
v 0.062500 -0.125000 0.781250
v -0.031250 -0.125000 0.781250
v -0.031250 -0.125000 0.281250
v -0.015625 -0.281250 0.406250
v -0.015625 -0.281250 0.781250
v 0.062500 -0.281250 0.781250
v 0.062500 -0.281250 0.406250
v 0.062500 -0.281250 0.406250
v 0.062500 -0.281250 0.781250
v -0.015625 -0.281250 0.781250
v -0.015625 -0.281250 0.406250
v 0.000000 -0.437500 0.437500
v 0.000000 -0.375000 0.781250
v 0.062500 -0.375000 0.781250
v 0.062500 -0.437500 0.437500
v 0.062500 -0.281250 0.781250
v 0.125000 -0.281250 0.906250
v 0.046875 -0.281250 0.906250
v -0.015625 -0.281250 0.781250
v 0.000000 -0.375000 0.781250
v 0.062500 -0.343750 0.906250
v 0.125000 -0.343750 0.906250
v 0.062500 -0.375000 0.781250
v 0.062500 -0.125000 0.781250
v 0.125000 -0.125000 0.906250
v 0.031250 -0.125000 0.906250
v -0.031250 -0.125000 0.781250
v -0.015625 -0.281250 0.781250
v 0.046875 -0.281250 0.906250
v 0.125000 -0.281250 0.906250
v 0.062500 -0.281250 0.781250
v 0.062500 0.187500 0.781250
v 0.125000 0.187500 0.906250
v 0.031250 0.187500 0.906250
v -0.031250 0.187500 0.781250
v -0.031250 -0.125000 0.781250
v 0.031250 -0.125000 0.906250
v 0.125000 -0.125000 0.906250
v 0.062500 -0.125000 0.781250
v 0.062500 0.375000 0.781250
v 0.125000 0.312500 0.906250
v 0.062500 0.312500 0.906250
v 0.000000 0.375000 0.781250
v -0.031250 0.187500 0.781250
v 0.031250 0.187500 0.906250
v 0.125000 0.187500 0.906250
v 0.062500 0.187500 0.781250
vt 1.863281 0.984375
vt 1.863281 0.992188
vt 1.873047 0.992188
vt 1.873047 0.984375
vt 1.873047 0.984375
vt 1.873047 0.992188
vt 1.882812 0.992188
vt 1.882812 0.984375
vt 1.873047 0.968750
vt 1.863281 0.968750
vt 1.884766 0.984375
vt 1.884766 0.968750
vt 1.875000 0.968750
vt 1.875000 0.984375
vt 1.861328 0.968750
vt 1.861328 0.984375
vt 1.003906 0.921875
vt 1.003906 0.929688
vt 1.056641 0.929688
vt 1.056641 0.921875
vt 1.056641 0.921875
vt 1.056641 0.929688
vt 1.109375 0.929688
vt 1.109375 0.921875
vt 1.056641 0.890625
vt 1.003906 0.890625
vt 1.111328 0.921875
vt 1.111328 0.890625
vt 1.058594 0.890625
vt 1.058594 0.921875
vt 1.001953 0.890625
vt 1.001953 0.921875
vt 1.894531 0.984375
vt 1.894531 0.992188
vt 1.908203 0.992188
vt 1.908203 0.984375
vt 1.908203 0.984375
vt 1.908203 0.992188
vt 1.921875 0.992188
vt 1.921875 0.984375
vt 1.908203 0.953125
vt 1.894531 0.953125
vt 1.923828 0.984375
vt 1.923828 0.953125
vt 1.910156 0.953125
vt 1.910156 0.984375
vt 1.892578 0.953125
vt 1.892578 0.984375
vt 1.941406 0.984375
vt 1.941406 0.992188
vt 1.958984 0.992188
vt 1.958984 0.984375
vt 1.958984 0.984375
vt 1.958984 0.992188
vt 1.976562 0.992188
vt 1.976562 0.984375
vt 1.958984 0.976562
vt 1.941406 0.976562
vt 1.978516 0.984375
vt 1.978516 0.976562
vt 1.960938 0.976562
vt 1.960938 0.984375
vt 1.939453 0.976562
vt 1.939453 0.984375
vt 1.128906 0.921875
vt 1.128906 0.929688
vt 1.136719 0.929688
vt 1.136719 0.921875
vt 1.136719 0.921875
vt 1.136719 0.929688
vt 1.144531 0.929688
vt 1.144531 0.921875
vt 1.136719 0.906250
vt 1.128906 0.906250
vt 1.146484 0.921875
vt 1.146484 0.906250
vt 1.138672 0.906250
vt 1.138672 0.921875
vt 1.126953 0.906250
vt 1.126953 0.921875
vt 1.253906 0.921875
vt 1.253906 0.929688
vt 1.292969 0.929688
vt 1.292969 0.921875
vt 1.292969 0.921875
vt 1.292969 0.929688
vt 1.332031 0.929688
vt 1.332031 0.921875
vt 1.292969 0.890625
vt 1.253906 0.890625
vt 1.333984 0.921875
vt 1.333984 0.890625
vt 1.294922 0.890625
vt 1.294922 0.921875
vt 1.251953 0.890625
vt 1.251953 0.921875
vt 1.582031 0.921875
vt 1.582031 0.929688
vt 1.601562 0.929688
vt 1.601562 0.921875
vt 1.601562 0.921875
vt 1.601562 0.929688
vt 1.621094 0.929688
vt 1.621094 0.921875
vt 1.601562 0.914062
vt 1.582031 0.914062
vt 1.623047 0.921875
vt 1.623047 0.914062
vt 1.603516 0.914062
vt 1.603516 0.921875
vt 1.580078 0.914062
vt 1.580078 0.921875
vt 1.628906 0.921875
vt 1.628906 0.929688
vt 1.640625 0.929688
vt 1.640625 0.921875
vt 1.640625 0.921875
vt 1.640625 0.929688
vt 1.652344 0.929688
vt 1.652344 0.921875
vt 1.640625 0.906250
vt 1.628906 0.906250
vt 1.654297 0.921875
vt 1.654297 0.906250
vt 1.642578 0.906250
vt 1.642578 0.921875
vt 1.626953 0.906250
vt 1.626953 0.921875
vt 1.660156 0.921875
vt 1.660156 0.929688
vt 1.669922 0.929688
vt 1.669922 0.921875
vt 1.669922 0.921875
vt 1.669922 0.929688
vt 1.679688 0.929688
vt 1.679688 0.921875
vt 1.669922 0.914062
vt 1.660156 0.914062
vt 1.681641 0.921875
vt 1.681641 0.914062
vt 1.671875 0.914062
vt 1.671875 0.921875
vt 1.658203 0.914062
vt 1.658203 0.921875
vt 1.988281 0.984375
vt 1.988281 0.992188
vt 1.992188 0.992188
vt 1.992188 0.984375
vt 1.992188 0.984375
vt 1.992188 0.992188
vt 1.996094 0.992188
vt 1.996094 0.984375
vt 1.992188 0.976562
vt 1.988281 0.976562
vt 1.998047 0.984375
vt 1.998047 0.976562
vt 1.994141 0.976562
vt 1.994141 0.984375
vt 1.986328 0.976562
vt 1.986328 0.984375
vt 1.691406 0.921875
vt 1.691406 0.929688
vt 1.695312 0.929688
vt 1.695312 0.921875
vt 1.695312 0.921875
vt 1.695312 0.929688
vt 1.699219 0.929688
vt 1.699219 0.921875
vt 1.695312 0.906250
vt 1.691406 0.906250
vt 1.701172 0.921875
vt 1.701172 0.906250
vt 1.697266 0.906250
vt 1.697266 0.921875
vt 1.689453 0.906250
vt 1.689453 0.921875
vt 1.707031 0.921875
vt 1.707031 0.929688
vt 1.710938 0.929688
vt 1.710938 0.921875
vt 1.710938 0.921875
vt 1.710938 0.929688
vt 1.714844 0.929688
vt 1.714844 0.921875
vt 1.710938 0.882812
vt 1.707031 0.882812
vt 1.716797 0.921875
vt 1.716797 0.882812
vt 1.712891 0.882812
vt 1.712891 0.921875
vt 1.705078 0.882812
vt 1.705078 0.921875
vt 1.722656 0.921875
vt 1.722656 0.929688
vt 1.726562 0.929688
vt 1.726562 0.921875
vt 1.726562 0.921875
vt 1.726562 0.929688
vt 1.730469 0.929688
vt 1.730469 0.921875
vt 1.726562 0.898438
vt 1.722656 0.898438
vt 1.732422 0.921875
vt 1.732422 0.898438
vt 1.728516 0.898438
vt 1.728516 0.921875
vt 1.720703 0.898438
vt 1.720703 0.921875
vn 0.0000 1.0000 0.0000
vn 0.0000 -1.0000 -0.0000
vn 1.0000 0.0000 0.0000
vn -0.9950 -0.0995 -0.0000
vn 0.0000 -0.6247 0.7809
vn 0.0000 0.0000 -1.0000
vn -1.0000 0.0000 0.0000
vn 0.0000 -0.0000 1.0000
vn -0.9923 0.1240 0.0000
vn 0.0000 -0.9285 0.3714
vn 0.0000 -0.3714 0.9285
vn 0.0000 0.9988 0.0499
vn -0.9899 0.1414 0.0035
vn 0.0000 -0.9285 -0.3714
vn 0.0000 -0.6247 -0.7809
vn 0.0000 -0.9839 0.1789
vn -0.9924 -0.1227 0.0107
vn 0.0000 -0.1961 -0.9806
vn 0.0000 -0.9701 0.2425
vn 0.8944 0.0000 -0.4472
vn -0.8718 -0.1744 0.4577
vn -0.8909 -0.0891 0.4454
vn -0.8944 -0.0000 0.4472
vn 0.0000 0.8944 0.4472
vn -0.8631 0.1726 0.4747
usemtl ModelMaterial.004
s 1
f 105/209/26 108/210/26 107/211/26 106/212/26
f 109/213/27 112/214/27 111/215/27 110/216/27
f 106/212/28 111/217/28 112/218/28 105/209/28
f 108/219/29 109/220/29 110/221/29 107/222/29
f 107/222/30 110/221/30 111/217/30 106/212/30
f 105/209/31 112/218/31 109/223/31 108/224/31
f 113/225/26 116/226/26 115/227/26 114/228/26
f 117/229/27 120/230/27 119/231/27 118/232/27
f 114/228/28 119/233/28 120/234/28 113/225/28
f 116/235/32 117/236/32 118/237/32 115/238/32
f 115/238/33 118/237/33 119/233/33 114/228/33
f 113/225/31 120/234/31 117/239/31 116/240/31
f 121/241/26 124/242/26 123/243/26 122/244/26
f 125/245/27 128/246/27 127/247/27 126/248/27
f 122/244/28 127/249/28 128/250/28 121/241/28
f 124/251/34 125/252/34 126/253/34 123/254/34
f 123/254/33 126/253/33 127/249/33 122/244/33
f 121/241/31 128/250/31 125/255/31 124/256/31
f 129/257/26 132/258/26 131/259/26 130/260/26
f 133/261/27 136/262/27 135/263/27 134/264/27
f 130/260/28 135/265/28 136/266/28 129/257/28
f 132/267/32 133/268/32 134/269/32 131/270/32
f 131/270/35 134/269/35 135/265/35 130/260/35
f 129/257/31 136/266/31 133/271/31 132/272/31
f 137/273/26 140/274/26 139/275/26 138/276/26
f 141/277/27 144/278/27 143/279/27 142/280/27
f 138/276/28 143/281/28 144/282/28 137/273/28
f 140/283/29 141/284/29 142/285/29 139/286/29
f 139/286/36 142/285/36 143/281/36 138/276/36
f 137/273/31 144/282/31 141/287/31 140/288/31
f 145/289/37 148/290/37 147/291/37 146/292/37
f 149/293/27 152/294/27 151/295/27 150/296/27
f 146/292/28 151/297/28 152/298/28 145/289/28
f 148/299/38 149/300/38 150/301/38 147/302/38
f 147/302/33 150/301/33 151/297/33 146/292/33
f 145/289/31 152/298/31 149/303/31 148/304/31
f 153/305/26 156/306/26 155/307/26 154/308/26
f 157/309/27 160/310/27 159/311/27 158/312/27
f 154/308/28 159/313/28 160/314/28 153/305/28
f 156/315/32 157/316/32 158/317/32 155/318/32
f 155/318/33 158/317/33 159/313/33 154/308/33
f 153/305/39 160/314/39 157/319/39 156/320/39
f 161/321/26 164/322/26 163/323/26 162/324/26
f 165/325/27 168/326/27 167/327/27 166/328/27
f 162/324/28 167/329/28 168/330/28 161/321/28
f 164/331/29 165/332/29 166/333/29 163/334/29
f 163/334/33 166/333/33 167/329/33 162/324/33
f 161/321/40 168/330/40 165/335/40 164/336/40
f 169/337/26 172/338/26 171/339/26 170/340/26
f 173/341/41 176/342/41 175/343/41 174/344/41
f 170/340/28 175/345/28 176/346/28 169/337/28
f 172/347/42 173/348/42 174/349/42 171/350/42
f 171/350/33 174/349/33 175/345/33 170/340/33
f 169/337/43 176/346/43 173/351/43 172/352/43
f 177/353/26 180/354/26 179/355/26 178/356/26
f 181/357/44 184/358/44 183/359/44 182/360/44
f 178/356/45 183/361/45 184/362/45 177/353/45
f 180/363/46 181/364/46 182/365/46 179/366/46
f 179/366/33 182/365/33 183/361/33 178/356/33
f 177/353/31 184/362/31 181/367/31 180/368/31
f 185/369/26 188/370/26 187/371/26 186/372/26
f 189/373/27 192/374/27 191/375/27 190/376/27
f 186/372/45 191/377/45 192/378/45 185/369/45
f 188/379/47 189/380/47 190/381/47 187/382/47
f 187/382/33 190/381/33 191/377/33 186/372/33
f 185/369/31 192/378/31 189/383/31 188/384/31
f 193/385/26 196/386/26 195/387/26 194/388/26
f 197/389/27 200/390/27 199/391/27 198/392/27
f 194/388/45 199/393/45 200/394/45 193/385/45
f 196/395/48 197/396/48 198/397/48 195/398/48
f 195/398/33 198/397/33 199/393/33 194/388/33
f 193/385/31 200/394/31 197/399/31 196/400/31
f 201/401/49 204/402/49 203/403/49 202/404/49
f 205/405/27 208/406/27 207/407/27 206/408/27
f 202/404/45 207/409/45 208/410/45 201/401/45
f 204/411/50 205/412/50 206/413/50 203/414/50
f 203/414/33 206/413/33 207/409/33 202/404/33
f 201/401/31 208/410/31 205/415/31 204/416/31
