# Blender v2.79 (sub 0) OBJ File: ''
# www.blender.org
mtllib trin_trumon_windshield.mtl
o bodyModel
v 0.937500 0.437500 0.000000
v 0.937500 0.437500 0.062500
v 1.025000 0.437500 0.056250
v 1.000000 0.437500 0.000000
v 1.000000 0.375000 0.000000
v 1.025000 0.375000 0.056250
v 0.937500 0.375000 0.062500
v 0.937500 0.375000 0.000000
v 1.000000 0.500000 0.000000
v 1.024421 0.500000 0.057532
v 1.197015 0.500000 -0.015730
v 1.172595 0.500000 -0.073262
v 1.172595 0.312500 -0.073262
v 1.197015 0.312500 -0.015730
v 1.024421 0.312500 0.057532
v 1.000000 0.312500 0.000000
v 1.040976 0.468750 0.016555
v 1.065397 0.468750 0.074087
v 1.180460 0.468750 0.025246
v 1.156039 0.468750 -0.032286
v 1.156039 0.343750 -0.032286
v 1.180460 0.343750 0.025246
v 1.065397 0.343750 0.074087
v 1.040976 0.343750 0.016555
vt 1.035156 0.964844
vt 1.037109 0.964844
vt 1.037109 0.966797
vt 1.035156 0.966797
vt 1.037109 0.964844
vt 1.039062 0.964844
vt 1.039062 0.966797
vt 1.037109 0.966797
vt 1.035156 0.962891
vt 1.037109 0.962891
vt 1.041016 0.964844
vt 1.039062 0.964844
vt 1.039062 0.962891
vt 1.041016 0.962891
vt 1.033203 0.964844
vt 1.033203 0.962891
vt 1.726562 0.914062
vt 1.728516 0.914062
vt 1.728516 0.919922
vt 1.726562 0.919922
vt 1.728516 0.914062
vt 1.730469 0.914062
vt 1.730469 0.919922
vt 1.728516 0.919922
vt 1.726562 0.908203
vt 1.728516 0.908203
vt 1.736328 0.914062
vt 1.734375 0.914062
vt 1.734375 0.908203
vt 1.736328 0.908203
vt 1.720703 0.914062
vt 1.720703 0.908203
vt 1.052734 0.962891
vt 1.054688 0.962891
vt 1.054688 0.966797
vt 1.052734 0.966797
vt 1.054688 0.962891
vt 1.056641 0.962891
vt 1.056641 0.966797
vt 1.054688 0.966797
vt 1.052734 0.958984
vt 1.054688 0.958984
vt 1.060547 0.962891
vt 1.058594 0.962891
vt 1.058594 0.958984
vt 1.060547 0.958984
vt 1.048828 0.962891
vt 1.048828 0.958984
vn -0.0000 1.0000 -0.0000
vn 0.0000 -1.0000 0.0000
vn -1.0000 0.0000 0.0000
vn 0.9138 0.0000 -0.4061
vn 0.0712 0.0000 0.9975
vn 0.0000 0.0000 -1.0000
vn -0.9205 -0.0000 0.3907
vn 0.9205 0.0000 -0.3907
vn 0.3907 0.0000 0.9205
vn -0.3907 0.0000 -0.9205
usemtl ModelMaterial
s off
f 1/1/1 2/2/1 3/3/1 4/4/1
f 5/5/2 6/6/2 7/7/2 8/8/2
f 2/2/3 1/1/3 8/9/3 7/10/3
f 4/11/4 3/12/4 6/13/4 5/14/4
f 3/12/5 2/2/5 7/10/5 6/13/5
f 1/1/6 4/15/6 5/16/6 8/9/6
f 9/17/1 10/18/1 11/19/1 12/20/1
f 13/21/2 14/22/2 15/23/2 16/24/2
f 10/18/7 9/17/7 16/25/7 15/26/7
f 12/27/8 11/28/8 14/29/8 13/30/8
f 11/28/9 10/18/9 15/26/9 14/29/9
f 9/17/10 12/31/10 13/32/10 16/25/10
f 17/33/1 18/34/1 19/35/1 20/36/1
f 21/37/2 22/38/2 23/39/2 24/40/2
f 18/34/7 17/33/7 24/41/7 23/42/7
f 20/43/8 19/44/8 22/45/8 21/46/8
f 19/44/9 18/34/9 23/42/9 22/45/9
f 17/33/10 20/47/10 21/48/10 24/41/10
o pitchFlapLeftModel
v 0.875000 1.125000 0.000000
v 0.875000 1.125000 0.062500
v 0.937500 1.125000 0.062500
v 0.937500 1.125000 0.000000
v 0.937500 0.062500 0.000000
v 0.937500 0.062500 0.062500
v 0.875000 0.062500 0.062500
v 0.875000 0.062500 0.000000
v -0.937500 1.125000 -0.000000
v -0.937500 1.125000 0.062500
v -0.875000 1.125000 0.062500
v -0.875000 1.125000 -0.000000
v -0.875000 0.062500 -0.000000
v -0.875000 0.062500 0.062500
v -0.937500 0.062500 0.062500
v -0.937500 0.062500 -0.000000
v -0.875000 0.562500 -0.000000
v -0.875000 0.562500 0.062500
v 0.875000 0.562500 0.062500
v 0.875000 0.562500 0.000000
v 0.875000 0.500000 0.000000
v 0.875000 0.500000 0.062500
v -0.875000 0.500000 0.062500
v -0.875000 0.500000 -0.000000
v -0.875000 0.500000 -0.000000
v -0.875000 0.500000 0.062500
v -0.812500 0.500000 0.062500
v -0.812500 0.500000 -0.000000
v -0.812500 0.062500 -0.000000
v -0.812500 0.062500 0.062500
v -0.875000 0.062500 0.062500
v -0.875000 0.062500 -0.000000
v 0.812500 0.500000 0.000000
v 0.812500 0.500000 0.062500
v 0.875000 0.500000 0.062500
v 0.875000 0.500000 0.000000
v 0.875000 0.062500 0.000000
v 0.875000 0.062500 0.062500
v 0.812500 0.062500 0.062500
v 0.812500 0.062500 0.000000
v -0.937500 0.062500 -0.000000
v -0.937500 0.062500 0.062500
v 0.937500 0.062500 0.062500
v 0.937500 0.062500 0.000000
v 0.937500 0.000000 0.000000
v 0.937500 0.000000 0.062500
v -0.937500 -0.000000 0.062500
v -0.937500 -0.000000 -0.000000
v -0.843750 0.500000 0.015625
v -0.843750 0.500000 0.046875
v 0.843750 0.500000 0.046875
v 0.843750 0.500000 0.015625
v 0.843750 0.062500 0.015625
v 0.843750 0.062500 0.046875
v -0.843750 0.062500 0.046875
v -0.843750 0.062500 0.015625
v -0.937500 1.187500 0.062500
v -0.937500 1.187500 0.062500
v 0.937500 1.187500 0.062500
v 0.937500 1.187500 0.062500
v 0.937500 1.125000 0.031250
v 0.937500 1.125000 0.062500
v -0.937500 1.125000 0.062500
v -0.937500 1.125000 0.031250
vt 1.222656 0.996094
vt 1.224609 0.996094
vt 1.224609 0.998047
vt 1.222656 0.998047
vt 1.224609 0.996094
vt 1.226562 0.996094
vt 1.226562 0.998047
vt 1.224609 0.998047
vt 1.222656 0.962891
vt 1.224609 0.962891
vt 1.228516 0.996094
vt 1.226562 0.996094
vt 1.226562 0.962891
vt 1.228516 0.962891
vt 1.220703 0.996094
vt 1.220703 0.962891
vt 1.628906 0.996094
vt 1.630859 0.996094
vt 1.630859 0.998047
vt 1.628906 0.998047
vt 1.630859 0.996094
vt 1.632812 0.996094
vt 1.632812 0.998047
vt 1.630859 0.998047
vt 1.628906 0.962891
vt 1.630859 0.962891
vt 1.634766 0.996094
vt 1.632812 0.996094
vt 1.632812 0.962891
vt 1.634766 0.962891
vt 1.626953 0.996094
vt 1.626953 0.962891
vt 1.931641 0.943359
vt 1.933594 0.943359
vt 1.933594 0.998047
vt 1.931641 0.998047
vt 1.933594 0.943359
vt 1.935547 0.943359
vt 1.935547 0.998047
vt 1.933594 0.998047
vt 1.931641 0.941406
vt 1.933594 0.941406
vt 1.990234 0.943359
vt 1.988281 0.943359
vt 1.988281 0.941406
vt 1.990234 0.941406
vt 1.876953 0.943359
vt 1.876953 0.941406
vt 1.769531 0.996094
vt 1.771484 0.996094
vt 1.771484 0.998047
vt 1.769531 0.998047
vt 1.771484 0.996094
vt 1.773438 0.996094
vt 1.773438 0.998047
vt 1.771484 0.998047
vt 1.769531 0.982422
vt 1.771484 0.982422
vt 1.775391 0.996094
vt 1.773438 0.996094
vt 1.773438 0.982422
vt 1.775391 0.982422
vt 1.767578 0.996094
vt 1.767578 0.982422
vt 1.785156 0.996094
vt 1.787109 0.996094
vt 1.787109 0.998047
vt 1.785156 0.998047
vt 1.787109 0.996094
vt 1.789062 0.996094
vt 1.789062 0.998047
vt 1.787109 0.998047
vt 1.785156 0.982422
vt 1.787109 0.982422
vt 1.791016 0.996094
vt 1.789062 0.996094
vt 1.789062 0.982422
vt 1.791016 0.982422
vt 1.783203 0.996094
vt 1.783203 0.982422
vt 1.857422 0.720703
vt 1.859375 0.720703
vt 1.859375 0.779297
vt 1.857422 0.779297
vt 1.859375 0.720703
vt 1.861328 0.720703
vt 1.861328 0.779297
vt 1.859375 0.779297
vt 1.857422 0.718750
vt 1.859375 0.718750
vt 1.919922 0.720703
vt 1.917969 0.720703
vt 1.917969 0.718750
vt 1.919922 0.718750
vt 1.798828 0.720703
vt 1.798828 0.718750
vt 1.929688 0.710938
vt 1.931641 0.710938
vt 1.931641 0.763672
vt 1.929688 0.763672
vt 1.931641 0.710938
vt 1.933594 0.710938
vt 1.933594 0.763672
vt 1.931641 0.763672
vt 1.929688 0.697266
vt 1.931641 0.697266
vt 1.986328 0.710938
vt 1.984375 0.710938
vt 1.984375 0.697266
vt 1.986328 0.697266
vt 1.876953 0.710938
vt 1.876953 0.697266
vt 1.654297 0.720703
vt 1.656250 0.720703
vt 1.656250 0.779297
vt 1.654297 0.779297
vt 1.656250 0.720703
vt 1.658203 0.720703
vt 1.658203 0.779297
vt 1.656250 0.779297
vt 1.654297 0.718750
vt 1.656250 0.718750
vt 1.716797 0.720703
vt 1.714844 0.720703
vt 1.714844 0.718750
vt 1.716797 0.718750
vt 1.595703 0.720703
vt 1.595703 0.718750
vn 0.0000 1.0000 0.0000
vn 0.0000 -1.0000 0.0000
vn -1.0000 -0.0000 0.0000
vn 1.0000 0.0000 0.0000
vn -0.0000 -0.0000 1.0000
vn 0.0000 0.0000 -1.0000
vn -0.0000 0.4472 -0.8944
usemtl ModelMaterial
s off
f 25/49/11 26/50/11 27/51/11 28/52/11
f 29/53/12 30/54/12 31/55/12 32/56/12
f 26/50/13 25/49/13 32/57/13 31/58/13
f 28/59/14 27/60/14 30/61/14 29/62/14
f 27/60/15 26/50/15 31/58/15 30/61/15
f 25/49/16 28/63/16 29/64/16 32/57/16
f 33/65/11 34/66/11 35/67/11 36/68/11
f 37/69/12 38/70/12 39/71/12 40/72/12
f 34/66/13 33/65/13 40/73/13 39/74/13
f 36/75/14 35/76/14 38/77/14 37/78/14
f 35/76/15 34/66/15 39/74/15 38/77/15
f 33/65/16 36/79/16 37/80/16 40/73/16
f 41/81/11 42/82/11 43/83/11 44/84/11
f 45/85/12 46/86/12 47/87/12 48/88/12
f 42/82/13 41/81/13 48/89/13 47/90/13
f 44/91/14 43/92/14 46/93/14 45/94/14
f 43/92/15 42/82/15 47/90/15 46/93/15
f 41/81/16 44/95/16 45/96/16 48/89/16
f 49/97/11 50/98/11 51/99/11 52/100/11
f 53/101/12 54/102/12 55/103/12 56/104/12
f 50/98/13 49/97/13 56/105/13 55/106/13
f 52/107/14 51/108/14 54/109/14 53/110/14
f 51/108/15 50/98/15 55/106/15 54/109/15
f 49/97/16 52/111/16 53/112/16 56/105/16
f 57/113/11 58/114/11 59/115/11 60/116/11
f 61/117/12 62/118/12 63/119/12 64/120/12
f 58/114/13 57/113/13 64/121/13 63/122/13
f 60/123/14 59/124/14 62/125/14 61/126/14
f 59/124/15 58/114/15 63/122/15 62/125/15
f 57/113/16 60/127/16 61/128/16 64/121/16
f 65/129/11 66/130/11 67/131/11 68/132/11
f 69/133/12 70/134/12 71/135/12 72/136/12
f 66/130/13 65/129/13 72/137/13 71/138/13
f 68/139/14 67/140/14 70/141/14 69/142/14
f 67/140/15 66/130/15 71/138/15 70/141/15
f 65/129/16 68/143/16 69/144/16 72/137/16
f 73/145/11 74/146/11 75/147/11 76/148/11
f 77/149/12 78/150/12 79/151/12 80/152/12
f 74/146/13 73/145/13 80/153/13 79/154/13
f 76/155/14 75/156/14 78/157/14 77/158/14
f 75/156/15 74/146/15 79/154/15 78/157/15
f 73/145/16 76/159/16 77/160/16 80/153/16
f 81/161/15 82/162/15 83/163/15 84/164/15
f 85/165/12 86/166/12 87/167/12 88/168/12
f 82/162/13 81/161/13 88/169/13 87/170/13
f 84/171/14 83/172/14 86/173/14 85/174/14
f 83/172/15 82/162/15 87/170/15 86/173/15
f 81/161/17 84/175/17 85/176/17 88/169/17
o bayModel
v 0.812500 1.125000 0.000000
v 0.812500 1.125000 0.062500
v 0.875000 1.125000 0.062500
v 0.875000 1.125000 0.000000
v 0.875000 0.562500 0.000000
v 0.875000 0.562500 0.062500
v 0.812500 0.562500 0.062500
v 0.812500 0.562500 0.000000
v -0.875000 1.125000 -0.000000
v -0.875000 1.125000 0.062500
v -0.812500 1.125000 0.062500
v -0.812500 1.125000 -0.000000
v -0.812500 0.562500 -0.000000
v -0.812500 0.562500 0.062500
v -0.875000 0.562500 0.062500
v -0.875000 0.562500 -0.000000
v -0.812500 1.125000 -0.000000
v -0.812500 1.125000 0.062500
v 0.812500 1.125000 0.062500
v 0.812500 1.125000 0.000000
v 0.812500 1.062500 0.000000
v 0.812500 1.062500 0.062500
v -0.812500 1.062500 0.062500
v -0.812500 1.062500 -0.000000
v -0.812500 0.625000 -0.000000
v -0.812500 0.625000 0.062500
v 0.812500 0.625000 0.062500
v 0.812500 0.625000 0.000000
v 0.812500 0.562500 0.000000
v 0.812500 0.562500 0.062500
v -0.812500 0.562500 0.062500
v -0.812500 0.562500 -0.000000
v -0.843750 1.062500 0.015625
v -0.843750 1.062500 0.046875
v 0.843750 1.062500 0.046875
v 0.843750 1.062500 0.015625
v 0.843750 0.625000 0.015625
v 0.843750 0.625000 0.046875
v -0.843750 0.625000 0.046875
v -0.843750 0.625000 0.015625
vt 1.738281 0.996094
vt 1.740234 0.996094
vt 1.740234 0.998047
vt 1.738281 0.998047
vt 1.740234 0.996094
vt 1.742188 0.996094
vt 1.742188 0.998047
vt 1.740234 0.998047
vt 1.738281 0.978516
vt 1.740234 0.978516
vt 1.744141 0.996094
vt 1.742188 0.996094
vt 1.742188 0.978516
vt 1.744141 0.978516
vt 1.736328 0.996094
vt 1.736328 0.978516
vt 1.753906 0.996094
vt 1.755859 0.996094
vt 1.755859 0.998047
vt 1.753906 0.998047
vt 1.755859 0.996094
vt 1.757812 0.996094
vt 1.757812 0.998047
vt 1.755859 0.998047
vt 1.753906 0.978516
vt 1.755859 0.978516
vt 1.759766 0.996094
vt 1.757812 0.996094
vt 1.757812 0.978516
vt 1.759766 0.978516
vt 1.751953 0.996094
vt 1.751953 0.978516
vt 1.865234 0.947266
vt 1.867188 0.947266
vt 1.867188 0.998047
vt 1.865234 0.998047
vt 1.867188 0.947266
vt 1.869141 0.947266
vt 1.869141 0.998047
vt 1.867188 0.998047
vt 1.865234 0.945312
vt 1.867188 0.945312
vt 1.919922 0.947266
vt 1.917969 0.947266
vt 1.917969 0.945312
vt 1.919922 0.945312
vt 1.814453 0.947266
vt 1.814453 0.945312
vt 1.615234 0.931641
vt 1.617188 0.931641
vt 1.617188 0.982422
vt 1.615234 0.982422
vt 1.617188 0.931641
vt 1.619141 0.931641
vt 1.619141 0.982422
vt 1.617188 0.982422
vt 1.615234 0.929688
vt 1.617188 0.929688
vt 1.669922 0.931641
vt 1.667969 0.931641
vt 1.667969 0.929688
vt 1.669922 0.929688
vt 1.564453 0.931641
vt 1.564453 0.929688
vt 1.476562 0.710938
vt 1.478516 0.710938
vt 1.478516 0.763672
vt 1.476562 0.763672
vt 1.478516 0.710938
vt 1.480469 0.710938
vt 1.480469 0.763672
vt 1.478516 0.763672
vt 1.476562 0.697266
vt 1.478516 0.697266
vt 1.533203 0.710938
vt 1.531250 0.710938
vt 1.531250 0.697266
vt 1.533203 0.697266
vt 1.423828 0.710938
vt 1.423828 0.697266
vn 0.0000 1.0000 0.0000
vn 0.0000 -1.0000 0.0000
vn -1.0000 -0.0000 0.0000
vn 1.0000 0.0000 0.0000
vn 0.0000 0.0000 1.0000
vn 0.0000 0.0000 -1.0000
usemtl ModelMaterial
s off
f 89/177/18 90/178/18 91/179/18 92/180/18
f 93/181/19 94/182/19 95/183/19 96/184/19
f 90/178/20 89/177/20 96/185/20 95/186/20
f 92/187/21 91/188/21 94/189/21 93/190/21
f 91/188/22 90/178/22 95/186/22 94/189/22
f 89/177/23 92/191/23 93/192/23 96/185/23
f 97/193/18 98/194/18 99/195/18 100/196/18
f 101/197/19 102/198/19 103/199/19 104/200/19
f 98/194/20 97/193/20 104/201/20 103/202/20
f 100/203/21 99/204/21 102/205/21 101/206/21
f 99/204/22 98/194/22 103/202/22 102/205/22
f 97/193/23 100/207/23 101/208/23 104/201/23
f 105/209/18 106/210/18 107/211/18 108/212/18
f 109/213/19 110/214/19 111/215/19 112/216/19
f 106/210/20 105/209/20 112/217/20 111/218/20
f 108/219/21 107/220/21 110/221/21 109/222/21
f 107/220/22 106/210/22 111/218/22 110/221/22
f 105/209/23 108/223/23 109/224/23 112/217/23
f 113/225/18 114/226/18 115/227/18 116/228/18
f 117/229/19 118/230/19 119/231/19 120/232/19
f 114/226/20 113/225/20 120/233/20 119/234/20
f 116/235/21 115/236/21 118/237/21 117/238/21
f 115/236/22 114/226/22 119/234/22 118/237/22
f 113/225/23 116/239/23 117/240/23 120/233/23
f 121/241/18 122/242/18 123/243/18 124/244/18
f 125/245/19 126/246/19 127/247/19 128/248/19
f 122/242/20 121/241/20 128/249/20 127/250/20
f 124/251/21 123/252/21 126/253/21 125/254/21
f 123/252/22 122/242/22 127/250/22 126/253/22
f 121/241/23 124/255/23 125/256/23 128/249/23
