# Blender v2.79 (sub 0) OBJ File: ''
# www.blender.org
mtllib trin_trumon_cabin.mtl
o body_backwall_window
v 1.046875 0.937500 0.250000
v 1.046875 0.937500 -0.187500
v 1.046875 0.187500 -0.187500
v 1.046875 0.187500 0.250000
v -1.046875 0.937500 -0.187500
v -1.046875 0.937500 0.250000
v -1.046875 0.187500 0.250000
v -1.046875 0.187500 -0.187500
v -0.781250 0.937500 -0.296875
v 0.781250 0.937500 -0.296875
v 0.781250 0.375000 -0.296875
v -0.781250 0.375000 -0.296875
vt 1.705078 0.777344
vt 1.691406 0.777344
vt 1.691406 0.753906
vt 1.705078 0.753906
vt 1.751953 0.777344
vt 1.738281 0.777344
vt 1.738281 0.753906
vt 1.751953 0.753906
vt 1.050781 0.714844
vt 1.001953 0.714844
vt 1.001953 0.697266
vt 1.050781 0.697266
vn 1.0000 0.0000 0.0000
vn -1.0000 -0.0000 0.0000
vn 0.0000 0.0000 -1.0000
usemtl ModelMaterial.002
s off
f 2/1/1 1/2/1 4/3/1 3/4/1
f 6/5/2 5/6/2 8/7/2 7/8/2
f 9/9/3 10/10/3 11/11/3 12/12/3
o body_roof
v -1.000000 1.218750 -0.312500
v -1.000000 1.250000 0.312500
v 1.000000 1.250000 0.312500
v 1.000000 1.218750 -0.312500
v 1.000000 1.187500 -0.312500
v 1.000000 1.187500 0.312500
v -1.000000 1.187500 0.312500
v -1.000000 1.187500 -0.312500
v 1.000000 1.218750 -0.312500
v 1.000000 1.250000 0.312500
v 1.062500 1.250000 0.312500
v 1.062500 1.218750 -0.312500
v 1.062500 1.000000 -0.312500
v 1.062500 1.000000 0.312500
v 1.000000 1.000000 0.312500
v 1.000000 1.000000 -0.312500
v 1.000000 1.250000 0.312500
v 0.937500 1.218750 1.062500
v 1.000000 1.218750 1.062500
v 1.062500 1.250000 0.312500
v 1.062500 1.125000 0.312500
v 1.000000 1.125000 1.062500
v 0.937500 1.125000 1.062500
v 1.000000 1.125000 0.312500
v 0.937500 1.218750 1.062500
v 0.875000 1.187500 1.437500
v 0.937500 1.187500 1.437500
v 1.000000 1.218750 1.062500
v 1.000000 1.125000 1.062500
v 0.937500 1.125000 1.437500
v 0.875000 1.125000 1.437500
v 0.937500 1.125000 1.062500
v -0.937500 1.187500 1.437500
v -0.937500 1.187500 1.562500
v 0.937500 1.187500 1.562500
v 0.937500 1.187500 1.437500
v 0.937500 1.125000 1.437500
v 0.937500 1.125000 1.500000
v -0.937500 1.125000 1.500000
v -0.937500 1.125000 1.437500
v -0.937500 1.125000 1.437500
v -0.937500 1.125000 1.500000
v 0.937500 1.125000 1.500000
v 0.937500 1.125000 1.437500
v 0.937500 1.062500 1.437500
v 0.937500 1.062500 1.468750
v -0.937500 1.062500 1.468750
v -0.937500 1.062500 1.437500
v -1.000000 1.250000 0.312500
v -0.937500 1.218750 1.062500
v 0.937500 1.218750 1.062500
v 1.000000 1.250000 0.312500
v 1.000000 1.187500 0.312500
v 0.937500 1.156250 1.062500
v -0.937500 1.156250 1.062500
v -1.000000 1.187500 0.312500
v -0.937500 1.218750 1.062500
v -0.875000 1.187500 1.437500
v 0.875000 1.187500 1.437500
v 0.937500 1.218750 1.062500
v 0.937500 1.156250 1.062500
v 0.875000 1.125000 1.437500
v -0.875000 1.125000 1.437500
v -0.937500 1.156250 1.062500
v -1.000000 1.218750 1.062500
v -0.937500 1.187500 1.437500
v -0.875000 1.187500 1.437500
v -0.937500 1.218750 1.062500
v -0.937500 1.125000 1.062500
v -0.875000 1.125000 1.437500
v -0.937500 1.125000 1.437500
v -1.000000 1.125000 1.062500
v -1.062500 1.250000 0.312500
v -1.000000 1.218750 1.062500
v -0.937500 1.218750 1.062500
v -1.000000 1.250000 0.312500
v -1.000000 1.125000 0.312500
v -0.937500 1.125000 1.062500
v -1.000000 1.125000 1.062500
v -1.062500 1.125000 0.312500
v -1.062500 1.218750 -0.312500
v -1.062500 1.250000 0.312500
v -1.000000 1.250000 0.312500
v -1.000000 1.218750 -0.312500
v -1.000000 1.000000 -0.312500
v -1.000000 1.000000 0.312500
v -1.062500 1.000000 0.312500
v -1.062500 1.000000 -0.312500
v -1.000000 1.187500 -0.312500
v -1.000000 1.187500 -0.250000
v 1.000000 1.187500 -0.250000
v 1.000000 1.187500 -0.312500
v 1.000000 1.000000 -0.312500
v 1.000000 1.000000 -0.250000
v -1.000000 1.000000 -0.250000
v -1.000000 1.000000 -0.312500
v -1.000000 1.125000 1.062500
v -0.937500 1.125000 1.437500
v -0.875000 1.125000 1.437500
v -0.937500 1.125000 1.062500
v -0.937500 1.125000 1.062500
v -0.875000 1.062500 1.437500
v -0.937500 1.062500 1.437500
v -1.000000 1.125000 1.062500
v 0.937500 1.125000 1.062500
v 0.875000 1.125000 1.437500
v 0.937500 1.125000 1.437500
v 1.000000 1.125000 1.062500
v 1.000000 1.125000 1.062500
v 0.937500 1.062500 1.437500
v 0.875000 1.062500 1.437500
v 0.937500 1.125000 1.062500
v 1.000000 1.125000 0.312500
v 0.984375 1.125000 0.500000
v 1.046875 1.125000 0.500000
v 1.062500 1.125000 0.312500
v 1.062500 1.000000 0.312500
v 1.046875 1.125000 0.500000
v 0.984375 1.125000 0.500000
v 1.000000 1.000000 0.312500
v -1.062500 1.125000 0.312500
v -1.046875 1.125000 0.500000
v -0.984375 1.125000 0.500000
v -1.000000 1.125000 0.312500
v -1.000000 1.000000 0.312500
v -0.984375 1.125000 0.500000
v -1.046875 1.125000 0.500000
v -1.062500 1.000000 0.312500
vt 1.689453 0.935547
vt 1.708984 0.935547
vt 1.708984 0.998047
vt 1.689453 0.998047
vt 1.708984 0.935547
vt 1.728516 0.935547
vt 1.728516 0.998047
vt 1.708984 0.998047
vt 1.689453 0.933594
vt 1.708984 0.933594
vt 1.791016 0.935547
vt 1.771484 0.935547
vt 1.771484 0.933594
vt 1.791016 0.933594
vt 1.626953 0.935547
vt 1.626953 0.933594
vt 1.425781 0.996094
vt 1.445312 0.996094
vt 1.445312 0.998047
vt 1.425781 0.998047
vt 1.445312 0.996094
vt 1.464844 0.996094
vt 1.464844 0.998047
vt 1.445312 0.998047
vt 1.425781 0.988281
vt 1.445312 0.988281
vt 1.466797 0.996094
vt 1.447266 0.996094
vt 1.447266 0.988281
vt 1.466797 0.988281
vt 1.423828 0.996094
vt 1.423828 0.988281
vt 1.566406 0.996094
vt 1.589844 0.996094
vt 1.589844 0.998047
vt 1.566406 0.998047
vt 1.589844 0.996094
vt 1.613281 0.996094
vt 1.613281 0.998047
vt 1.589844 0.998047
vt 1.566406 0.992188
vt 1.589844 0.992188
vt 1.615234 0.996094
vt 1.591797 0.996094
vt 1.591797 0.992188
vt 1.615234 0.992188
vt 1.564453 0.996094
vt 1.564453 0.992188
vt 1.472656 0.996094
vt 1.484375 0.996094
vt 1.484375 0.998047
vt 1.472656 0.998047
vt 1.484375 0.996094
vt 1.496094 0.996094
vt 1.496094 0.998047
vt 1.484375 0.998047
vt 1.472656 0.992188
vt 1.484375 0.992188
vt 1.498047 0.996094
vt 1.486328 0.996094
vt 1.486328 0.992188
vt 1.498047 0.992188
vt 1.470703 0.996094
vt 1.470703 0.992188
vt 1.794922 0.939453
vt 1.798828 0.939453
vt 1.798828 0.998047
vt 1.794922 0.998047
vt 1.798828 0.939453
vt 1.802734 0.939453
vt 1.802734 0.998047
vt 1.798828 0.998047
vt 1.794922 0.937500
vt 1.798828 0.937500
vt 1.861328 0.939453
vt 1.857422 0.939453
vt 1.857422 0.937500
vt 1.861328 0.937500
vt 1.736328 0.939453
vt 1.736328 0.937500
vt 1.794922 0.876953
vt 1.796875 0.876953
vt 1.796875 0.935547
vt 1.794922 0.935547
vt 1.796875 0.876953
vt 1.798828 0.876953
vt 1.798828 0.935547
vt 1.796875 0.935547
vt 1.794922 0.875000
vt 1.796875 0.875000
vt 1.857422 0.876953
vt 1.855469 0.876953
vt 1.855469 0.875000
vt 1.857422 0.875000
vt 1.736328 0.876953
vt 1.736328 0.875000
vt 1.861328 0.873047
vt 1.884766 0.873047
vt 1.884766 0.935547
vt 1.861328 0.935547
vt 1.884766 0.873047
vt 1.908203 0.873047
vt 1.908203 0.935547
vt 1.884766 0.935547
vt 1.861328 0.871094
vt 1.884766 0.871094
vt 1.970703 0.873047
vt 1.947266 0.873047
vt 1.947266 0.871094
vt 1.970703 0.871094
vt 1.798828 0.873047
vt 1.798828 0.871094
vt 1.060547 0.861328
vt 1.072266 0.861328
vt 1.072266 0.919922
vt 1.060547 0.919922
vt 1.072266 0.861328
vt 1.083984 0.861328
vt 1.083984 0.919922
vt 1.072266 0.919922
vt 1.060547 0.859375
vt 1.072266 0.859375
vt 1.142578 0.861328
vt 1.130859 0.861328
vt 1.130859 0.859375
vt 1.142578 0.859375
vt 1.001953 0.861328
vt 1.001953 0.859375
vt 1.816406 0.996094
vt 1.828125 0.996094
vt 1.828125 0.998047
vt 1.816406 0.998047
vt 1.828125 0.996094
vt 1.839844 0.996094
vt 1.839844 0.998047
vt 1.828125 0.998047
vt 1.816406 0.992188
vt 1.828125 0.992188
vt 1.841797 0.996094
vt 1.830078 0.996094
vt 1.830078 0.992188
vt 1.841797 0.992188
vt 1.814453 0.996094
vt 1.814453 0.992188
vt 1.878906 0.996094
vt 1.902344 0.996094
vt 1.902344 0.998047
vt 1.878906 0.998047
vt 1.902344 0.996094
vt 1.925781 0.996094
vt 1.925781 0.998047
vt 1.902344 0.998047
vt 1.878906 0.992188
vt 1.902344 0.992188
vt 1.927734 0.996094
vt 1.904297 0.996094
vt 1.904297 0.992188
vt 1.927734 0.992188
vt 1.876953 0.996094
vt 1.876953 0.992188
vt 1.941406 0.996094
vt 1.960938 0.996094
vt 1.960938 0.998047
vt 1.941406 0.998047
vt 1.960938 0.996094
vt 1.980469 0.996094
vt 1.980469 0.998047
vt 1.960938 0.998047
vt 1.941406 0.988281
vt 1.960938 0.988281
vt 1.982422 0.996094
vt 1.962891 0.996094
vt 1.962891 0.988281
vt 1.982422 0.988281
vt 1.939453 0.996094
vt 1.939453 0.988281
vt 1.580078 0.748047
vt 1.582031 0.748047
vt 1.582031 0.810547
vt 1.580078 0.810547
vt 1.582031 0.748047
vt 1.583984 0.748047
vt 1.583984 0.810547
vt 1.582031 0.810547
vt 1.580078 0.742188
vt 1.582031 0.742188
vt 1.646484 0.748047
vt 1.644531 0.748047
vt 1.644531 0.742188
vt 1.646484 0.742188
vt 1.517578 0.748047
vt 1.517578 0.742188
vt 1.972656 0.839844
vt 1.984375 0.839844
vt 1.984375 0.841797
vt 1.972656 0.841797
vt 1.984375 0.839844
vt 1.996094 0.839844
vt 1.996094 0.841797
vt 1.984375 0.841797
vt 1.972656 0.837891
vt 1.984375 0.837891
vt 1.998047 0.839844
vt 1.986328 0.839844
vt 1.986328 0.837891
vt 1.998047 0.837891
vt 1.970703 0.839844
vt 1.970703 0.837891
vt 1.972656 0.824219
vt 1.984375 0.824219
vt 1.984375 0.826172
vt 1.972656 0.826172
vt 1.984375 0.824219
vt 1.996094 0.824219
vt 1.996094 0.826172
vt 1.984375 0.826172
vt 1.972656 0.822266
vt 1.984375 0.822266
vt 1.998047 0.824219
vt 1.986328 0.824219
vt 1.986328 0.822266
vt 1.998047 0.822266
vt 1.970703 0.824219
vt 1.970703 0.822266
vt 1.519531 0.855469
vt 1.525391 0.855469
vt 1.525391 0.857422
vt 1.519531 0.857422
vt 1.525391 0.855469
vt 1.531250 0.855469
vt 1.531250 0.857422
vt 1.525391 0.857422
vt 1.519531 0.851562
vt 1.525391 0.851562
vt 1.533203 0.855469
vt 1.527344 0.855469
vt 1.527344 0.851562
vt 1.533203 0.851562
vt 1.517578 0.855469
vt 1.517578 0.851562
vt 1.316406 0.839844
vt 1.322266 0.839844
vt 1.322266 0.841797
vt 1.316406 0.841797
vt 1.322266 0.839844
vt 1.328125 0.839844
vt 1.328125 0.841797
vt 1.322266 0.841797
vt 1.316406 0.835938
vt 1.322266 0.835938
vt 1.330078 0.839844
vt 1.324219 0.839844
vt 1.324219 0.835938
vt 1.330078 0.835938
vt 1.314453 0.839844
vt 1.314453 0.835938
vn -0.0000 0.9988 -0.0499
vn 0.0000 -1.0000 0.0000
vn -1.0000 0.0000 0.0000
vn 1.0000 0.0000 0.0000
vn -0.0000 -0.0000 1.0000
vn 0.0000 0.0000 -1.0000
vn 0.0000 0.9991 0.0416
vn -0.9965 0.0000 -0.0830
vn 0.9965 0.0000 0.0830
vn 0.0000 0.9965 0.0830
vn -0.9864 0.0000 -0.1644
vn 0.9864 0.0000 0.1644
vn -0.0000 1.0000 0.0000
vn 0.0000 -0.7071 0.7071
vn 0.0000 -0.4472 0.8944
vn 0.0000 -0.9991 -0.0416
vn -0.9965 0.0000 0.0830
vn 0.0000 -0.9965 -0.0830
vn -0.9864 0.0000 0.1644
vn 0.9864 0.0000 -0.1644
vn 0.9965 0.0000 -0.0830
vn 0.0000 -0.9864 -0.1644
vn 0.0000 -0.8321 0.5547
usemtl ModelMaterial.002
s off
f 13/13/4 14/14/4 15/15/4 16/16/4
f 17/17/5 18/18/5 19/19/5 20/20/5
f 14/14/6 13/13/6 20/21/6 19/22/6
f 16/23/7 15/24/7 18/25/7 17/26/7
f 15/24/8 14/14/8 19/22/8 18/25/8
f 13/13/9 16/27/9 17/28/9 20/21/9
f 21/29/4 22/30/4 23/31/4 24/32/4
f 25/33/5 26/34/5 27/35/5 28/36/5
f 22/30/6 21/29/6 28/37/6 27/38/6
f 24/39/7 23/40/7 26/41/7 25/42/7
f 23/40/8 22/30/8 27/38/8 26/41/8
f 21/29/9 24/43/9 25/44/9 28/37/9
f 29/45/10 30/46/10 31/47/10 32/48/10
f 33/49/5 34/50/5 35/51/5 36/52/5
f 30/46/11 29/45/11 36/53/11 35/54/11
f 32/55/12 31/56/12 34/57/12 33/58/12
f 31/56/8 30/46/8 35/54/8 34/57/8
f 29/45/9 32/59/9 33/60/9 36/53/9
f 37/61/13 38/62/13 39/63/13 40/64/13
f 41/65/5 42/66/5 43/67/5 44/68/5
f 38/62/14 37/61/14 44/69/14 43/70/14
f 40/71/15 39/72/15 42/73/15 41/74/15
f 39/72/8 38/62/8 43/70/8 42/73/8
f 37/61/9 40/75/9 41/76/9 44/69/9
f 45/77/16 46/78/16 47/79/16 48/80/16
f 49/81/5 50/82/5 51/83/5 52/84/5
f 46/78/6 45/77/6 52/85/6 51/86/6
f 48/87/7 47/88/7 50/89/7 49/90/7
f 47/88/17 46/78/17 51/86/17 50/89/17
f 45/77/9 48/91/9 49/92/9 52/85/9
f 53/93/16 54/94/16 55/95/16 56/96/16
f 57/97/5 58/98/5 59/99/5 60/100/5
f 54/94/6 53/93/6 60/101/6 59/102/6
f 56/103/7 55/104/7 58/105/7 57/106/7
f 55/104/18 54/94/18 59/102/18 58/105/18
f 53/93/9 56/107/9 57/108/9 60/101/9
f 61/109/10 62/110/10 63/111/10 64/112/10
f 65/113/19 66/114/19 67/115/19 68/116/19
f 62/110/20 61/109/20 68/117/20 67/118/20
f 64/119/12 63/120/12 66/121/12 65/122/12
f 63/120/8 62/110/8 67/118/8 66/121/8
f 61/109/9 64/123/9 65/124/9 68/117/9
f 69/125/13 70/126/13 71/127/13 72/128/13
f 73/129/21 74/130/21 75/131/21 76/132/21
f 70/126/22 69/125/22 76/133/22 75/134/22
f 72/135/15 71/136/15 74/137/15 73/138/15
f 71/136/8 70/126/8 75/134/8 74/137/8
f 69/125/9 72/139/9 73/140/9 76/133/9
f 77/141/13 78/142/13 79/143/13 80/144/13
f 81/145/5 82/146/5 83/147/5 84/148/5
f 78/142/22 77/141/22 84/149/22 83/150/22
f 80/151/23 79/152/23 82/153/23 81/154/23
f 79/152/8 78/142/8 83/150/8 82/153/8
f 77/141/9 80/155/9 81/156/9 84/149/9
f 85/157/10 86/158/10 87/159/10 88/160/10
f 89/161/5 90/162/5 91/163/5 92/164/5
f 86/158/20 85/157/20 92/165/20 91/166/20
f 88/167/24 87/168/24 90/169/24 89/170/24
f 87/168/8 86/158/8 91/166/8 90/169/8
f 85/157/9 88/171/9 89/172/9 92/165/9
f 93/173/4 94/174/4 95/175/4 96/176/4
f 97/177/5 98/178/5 99/179/5 100/180/5
f 94/174/6 93/173/6 100/181/6 99/182/6
f 96/183/7 95/184/7 98/185/7 97/186/7
f 95/184/8 94/174/8 99/182/8 98/185/8
f 93/173/9 96/187/9 97/188/9 100/181/9
f 101/189/16 102/190/16 103/191/16 104/192/16
f 105/193/5 106/194/5 107/195/5 108/196/5
f 102/190/6 101/189/6 108/197/6 107/198/6
f 104/199/7 103/200/7 106/201/7 105/202/7
f 103/200/8 102/190/8 107/198/8 106/201/8
f 101/189/9 104/203/9 105/204/9 108/197/9
f 109/205/16 110/206/16 111/207/16 112/208/16
f 113/209/25 114/210/25 115/211/25 116/212/25
f 110/206/22 109/205/22 116/213/22 115/214/22
f 112/215/23 111/216/23 114/217/23 113/218/23
f 111/216/8 110/206/8 115/214/8 114/217/8
f 109/205/8 112/219/8 113/220/8 116/213/8
f 117/221/16 118/222/16 119/223/16 120/224/16
f 121/225/25 122/226/25 123/227/25 124/228/25
f 118/222/14 117/221/14 124/229/14 123/230/14
f 120/231/15 119/232/15 122/233/15 121/234/15
f 119/232/8 118/222/8 123/230/8 122/233/8
f 117/221/8 120/235/8 121/236/8 124/229/8
f 125/237/16 126/238/16 127/239/16 128/240/16
f 129/241/26 130/242/26 131/243/26 132/244/26
f 126/238/11 125/237/11 132/245/11 131/246/11
f 128/247/12 127/248/12 130/249/12 129/250/12
f 127/248/8 126/238/8 131/246/8 130/249/8
f 125/237/9 128/251/9 129/252/9 132/245/9
f 133/253/16 134/254/16 135/255/16 136/256/16
f 137/257/26 138/258/26 139/259/26 140/260/26
f 134/254/20 133/253/20 140/261/20 139/262/20
f 136/263/24 135/264/24 138/265/24 137/266/24
f 135/264/8 134/254/8 139/262/8 138/265/8
f 133/253/9 136/267/9 137/268/9 140/261/9
o body_backwall
v -1.000000 0.375000 -0.312500
v -1.000000 0.375000 -0.250000
v 1.000000 0.375000 -0.250000
v 1.000000 0.375000 -0.312500
v 1.000000 0.125000 -0.312500
v 1.000000 0.125000 -0.250000
v -1.000000 0.125000 -0.250000
v -1.000000 0.125000 -0.312500
v 1.000000 0.187500 -0.312500
v 1.000000 0.187500 0.312500
v 1.062500 0.187500 0.312500
v 1.062500 0.187500 -0.312500
v 1.062500 0.125000 -0.312500
v 1.062500 0.125000 0.312500
v 1.000000 0.125000 0.312500
v 1.000000 0.125000 -0.312500
v 1.000000 1.000000 -0.312500
v 1.000000 1.000000 -0.187500
v 1.062500 1.000000 -0.187500
v 1.062500 1.000000 -0.312500
v 1.062500 0.187500 -0.312500
v 1.062500 0.187500 -0.187500
v 1.000000 0.187500 -0.187500
v 1.000000 0.187500 -0.312500
v 1.000000 1.000000 0.250000
v 1.000000 1.000000 0.312500
v 1.062500 1.000000 0.312500
v 1.062500 1.000000 0.250000
v 1.062500 0.187500 0.250000
v 1.062500 0.187500 0.312500
v 1.000000 0.187500 0.312500
v 1.000000 0.187500 0.250000
v -1.062500 1.000000 -0.312500
v -1.062500 1.000000 -0.187500
v -1.000000 1.000000 -0.187500
v -1.000000 1.000000 -0.312500
v -1.000000 0.187500 -0.312500
v -1.000000 0.187500 -0.187500
v -1.062500 0.187500 -0.187500
v -1.062500 0.187500 -0.312500
v -1.062500 1.000000 0.250000
v -1.062500 1.000000 0.312500
v -1.000000 1.000000 0.312500
v -1.000000 1.000000 0.250000
v -1.000000 0.187500 0.250000
v -1.000000 0.187500 0.312500
v -1.062500 0.187500 0.312500
v -1.062500 0.187500 0.250000
v -1.000000 1.000000 -0.312500
v -1.000000 1.000000 -0.250000
v -0.750000 1.000000 -0.250000
v -0.750000 1.000000 -0.312500
v -0.750000 0.375000 -0.312500
v -0.750000 0.375000 -0.250000
v -1.000000 0.375000 -0.250000
v -1.000000 0.375000 -0.312500
v 0.750000 1.000000 -0.312500
v 0.750000 1.000000 -0.250000
v 1.000000 1.000000 -0.250000
v 1.000000 1.000000 -0.312500
v 1.000000 0.375000 -0.312500
v 1.000000 0.375000 -0.250000
v 0.750000 0.375000 -0.250000
v 0.750000 0.375000 -0.312500
v -1.062500 0.187500 -0.312500
v -1.062500 0.187500 0.312500
v -1.000000 0.187500 0.312500
v -1.000000 0.187500 -0.312500
v -1.000000 0.125000 -0.312500
v -1.000000 0.125000 0.312500
v -1.062500 0.125000 0.312500
v -1.062500 0.125000 -0.312500
v -1.062500 1.000000 -0.187500
v -1.062500 1.000000 0.250000
v -1.000000 1.000000 0.250000
v -1.000000 1.000000 -0.187500
v -1.000000 0.937500 -0.187500
v -1.000000 0.937500 0.250000
v -1.062500 0.937500 0.250000
v -1.062500 0.937500 -0.187500
v 1.000000 1.000000 -0.187500
v 1.000000 1.000000 0.250000
v 1.062500 1.000000 0.250000
v 1.062500 1.000000 -0.187500
v 1.062500 0.937500 -0.187500
v 1.062500 0.937500 0.250000
v 1.000000 0.937500 0.250000
v 1.000000 0.937500 -0.187500
v -0.750000 1.000000 -0.312500
v -0.750000 1.000000 -0.250000
v 0.750000 1.000000 -0.250000
v 0.750000 1.000000 -0.312500
v 0.750000 0.937500 -0.312500
v 0.750000 0.937500 -0.250000
v -0.750000 0.937500 -0.250000
v -0.750000 0.937500 -0.312500
vt 1.361328 0.935547
vt 1.363281 0.935547
vt 1.363281 0.998047
vt 1.361328 0.998047
vt 1.363281 0.935547
vt 1.365234 0.935547
vt 1.365234 0.998047
vt 1.363281 0.998047
vt 1.361328 0.927734
vt 1.363281 0.927734
vt 1.427734 0.935547
vt 1.425781 0.935547
vt 1.425781 0.927734
vt 1.427734 0.927734
vt 1.298828 0.935547
vt 1.298828 0.927734
vt 1.253906 0.996094
vt 1.273438 0.996094
vt 1.273438 0.998047
vt 1.253906 0.998047
vt 1.273438 0.996094
vt 1.292969 0.996094
vt 1.292969 0.998047
vt 1.273438 0.998047
vt 1.253906 0.994141
vt 1.273438 0.994141
vt 1.294922 0.996094
vt 1.275391 0.996094
vt 1.275391 0.994141
vt 1.294922 0.994141
vt 1.251953 0.996094
vt 1.251953 0.994141
vt 1.410156 0.996094
vt 1.414062 0.996094
vt 1.414062 0.998047
vt 1.410156 0.998047
vt 1.414062 0.996094
vt 1.417969 0.996094
vt 1.417969 0.998047
vt 1.414062 0.998047
vt 1.410156 0.970703
vt 1.414062 0.970703
vt 1.419922 0.996094
vt 1.416016 0.996094
vt 1.416016 0.970703
vt 1.419922 0.970703
vt 1.408203 0.996094
vt 1.408203 0.970703
vt 1.144531 0.996094
vt 1.146484 0.996094
vt 1.146484 0.998047
vt 1.144531 0.998047
vt 1.146484 0.996094
vt 1.148438 0.996094
vt 1.148438 0.998047
vt 1.146484 0.998047
vt 1.144531 0.970703
vt 1.146484 0.970703
vt 1.150391 0.996094
vt 1.148438 0.996094
vt 1.148438 0.970703
vt 1.150391 0.970703
vt 1.142578 0.996094
vt 1.142578 0.970703
vt 1.988281 0.996094
vt 1.992188 0.996094
vt 1.992188 0.998047
vt 1.988281 0.998047
vt 1.992188 0.996094
vt 1.996094 0.996094
vt 1.996094 0.998047
vt 1.992188 0.998047
vt 1.988281 0.970703
vt 1.992188 0.970703
vt 1.998047 0.996094
vt 1.994141 0.996094
vt 1.994141 0.970703
vt 1.998047 0.970703
vt 1.986328 0.996094
vt 1.986328 0.970703
vt 1.316406 0.980469
vt 1.318359 0.980469
vt 1.318359 0.982422
vt 1.316406 0.982422
vt 1.318359 0.980469
vt 1.320312 0.980469
vt 1.320312 0.982422
vt 1.318359 0.982422
vt 1.316406 0.955078
vt 1.318359 0.955078
vt 1.322266 0.980469
vt 1.320312 0.980469
vt 1.320312 0.955078
vt 1.322266 0.955078
vt 1.314453 0.980469
vt 1.314453 0.955078
vt 1.978516 0.865234
vt 1.980469 0.865234
vt 1.980469 0.873047
vt 1.978516 0.873047
vt 1.980469 0.865234
vt 1.982422 0.865234
vt 1.982422 0.873047
vt 1.980469 0.873047
vt 1.978516 0.845703
vt 1.980469 0.845703
vt 1.990234 0.865234
vt 1.988281 0.865234
vt 1.988281 0.845703
vt 1.990234 0.845703
vt 1.970703 0.865234
vt 1.970703 0.845703
vt 1.337891 0.833984
vt 1.339844 0.833984
vt 1.339844 0.841797
vt 1.337891 0.841797
vt 1.339844 0.833984
vt 1.341797 0.833984
vt 1.341797 0.841797
vt 1.339844 0.841797
vt 1.337891 0.814453
vt 1.339844 0.814453
vt 1.349609 0.833984
vt 1.347656 0.833984
vt 1.347656 0.814453
vt 1.349609 0.814453
vt 1.330078 0.833984
vt 1.330078 0.814453
vt 1.535156 0.792969
vt 1.554688 0.792969
vt 1.554688 0.794922
vt 1.535156 0.794922
vt 1.554688 0.792969
vt 1.574219 0.792969
vt 1.574219 0.794922
vt 1.554688 0.794922
vt 1.535156 0.791016
vt 1.554688 0.791016
vt 1.576172 0.792969
vt 1.556641 0.792969
vt 1.556641 0.791016
vt 1.576172 0.791016
vt 1.533203 0.792969
vt 1.533203 0.791016
vt 1.800781 0.792969
vt 1.814453 0.792969
vt 1.814453 0.794922
vt 1.800781 0.794922
vt 1.814453 0.792969
vt 1.828125 0.792969
vt 1.828125 0.794922
vt 1.814453 0.794922
vt 1.800781 0.791016
vt 1.814453 0.791016
vt 1.830078 0.792969
vt 1.816406 0.792969
vt 1.816406 0.791016
vt 1.830078 0.791016
vt 1.798828 0.792969
vt 1.798828 0.791016
vt 1.878906 0.792969
vt 1.892578 0.792969
vt 1.892578 0.794922
vt 1.878906 0.794922
vt 1.892578 0.792969
vt 1.906250 0.792969
vt 1.906250 0.794922
vt 1.892578 0.794922
vt 1.878906 0.791016
vt 1.892578 0.791016
vt 1.908203 0.792969
vt 1.894531 0.792969
vt 1.894531 0.791016
vt 1.908203 0.791016
vt 1.876953 0.792969
vt 1.876953 0.791016
vt 1.361328 0.732422
vt 1.363281 0.732422
vt 1.363281 0.779297
vt 1.361328 0.779297
vt 1.363281 0.732422
vt 1.365234 0.732422
vt 1.365234 0.779297
vt 1.363281 0.779297
vt 1.361328 0.730469
vt 1.363281 0.730469
vt 1.412109 0.732422
vt 1.410156 0.732422
vt 1.410156 0.730469
vt 1.412109 0.730469
vt 1.314453 0.732422
vt 1.314453 0.730469
vn -0.0000 1.0000 0.0000
vn 0.0000 -1.0000 0.0000
vn -1.0000 0.0000 0.0000
vn 1.0000 0.0000 0.0000
vn -0.0000 -0.0000 1.0000
vn 0.0000 0.0000 -1.0000
usemtl ModelMaterial.002
s off
f 141/269/27 142/270/27 143/271/27 144/272/27
f 145/273/28 146/274/28 147/275/28 148/276/28
f 142/270/29 141/269/29 148/277/29 147/278/29
f 144/279/30 143/280/30 146/281/30 145/282/30
f 143/280/31 142/270/31 147/278/31 146/281/31
f 141/269/32 144/283/32 145/284/32 148/277/32
f 149/285/27 150/286/27 151/287/27 152/288/27
f 153/289/28 154/290/28 155/291/28 156/292/28
f 150/286/29 149/285/29 156/293/29 155/294/29
f 152/295/30 151/296/30 154/297/30 153/298/30
f 151/296/31 150/286/31 155/294/31 154/297/31
f 149/285/32 152/299/32 153/300/32 156/293/32
f 157/301/27 158/302/27 159/303/27 160/304/27
f 161/305/28 162/306/28 163/307/28 164/308/28
f 158/302/29 157/301/29 164/309/29 163/310/29
f 160/311/30 159/312/30 162/313/30 161/314/30
f 159/312/31 158/302/31 163/310/31 162/313/31
f 157/301/32 160/315/32 161/316/32 164/309/32
f 165/317/27 166/318/27 167/319/27 168/320/27
f 169/321/28 170/322/28 171/323/28 172/324/28
f 166/318/29 165/317/29 172/325/29 171/326/29
f 168/327/30 167/328/30 170/329/30 169/330/30
f 167/328/31 166/318/31 171/326/31 170/329/31
f 165/317/32 168/331/32 169/332/32 172/325/32
f 173/333/27 174/334/27 175/335/27 176/336/27
f 177/337/28 178/338/28 179/339/28 180/340/28
f 174/334/29 173/333/29 180/341/29 179/342/29
f 176/343/30 175/344/30 178/345/30 177/346/30
f 175/344/31 174/334/31 179/342/31 178/345/31
f 173/333/32 176/347/32 177/348/32 180/341/32
f 181/349/27 182/350/27 183/351/27 184/352/27
f 185/353/28 186/354/28 187/355/28 188/356/28
f 182/350/29 181/349/29 188/357/29 187/358/29
f 184/359/30 183/360/30 186/361/30 185/362/30
f 183/360/31 182/350/31 187/358/31 186/361/31
f 181/349/32 184/363/32 185/364/32 188/357/32
f 189/365/27 190/366/27 191/367/27 192/368/27
f 193/369/28 194/370/28 195/371/28 196/372/28
f 190/366/29 189/365/29 196/373/29 195/374/29
f 192/375/30 191/376/30 194/377/30 193/378/30
f 191/376/31 190/366/31 195/374/31 194/377/31
f 189/365/32 192/379/32 193/380/32 196/373/32
f 197/381/27 198/382/27 199/383/27 200/384/27
f 201/385/28 202/386/28 203/387/28 204/388/28
f 198/382/29 197/381/29 204/389/29 203/390/29
f 200/391/30 199/392/30 202/393/30 201/394/30
f 199/392/31 198/382/31 203/390/31 202/393/31
f 197/381/32 200/395/32 201/396/32 204/389/32
f 205/397/27 206/398/27 207/399/27 208/400/27
f 209/401/28 210/402/28 211/403/28 212/404/28
f 206/398/29 205/397/29 212/405/29 211/406/29
f 208/407/30 207/408/30 210/409/30 209/410/30
f 207/408/31 206/398/31 211/406/31 210/409/31
f 205/397/32 208/411/32 209/412/32 212/405/32
f 213/413/27 214/414/27 215/415/27 216/416/27
f 217/417/28 218/418/28 219/419/28 220/420/28
f 214/414/29 213/413/29 220/421/29 219/422/29
f 216/423/30 215/424/30 218/425/30 217/426/30
f 215/424/31 214/414/31 219/422/31 218/425/31
f 213/413/32 216/427/32 217/428/32 220/421/32
f 221/429/27 222/430/27 223/431/27 224/432/27
f 225/433/28 226/434/28 227/435/28 228/436/28
f 222/430/29 221/429/29 228/437/29 227/438/29
f 224/439/30 223/440/30 226/441/30 225/442/30
f 223/440/31 222/430/31 227/438/31 226/441/31
f 221/429/32 224/443/32 225/444/32 228/437/32
f 229/445/27 230/446/27 231/447/27 232/448/27
f 233/449/28 234/450/28 235/451/28 236/452/28
f 230/446/29 229/445/29 236/453/29 235/454/29
f 232/455/30 231/456/30 234/457/30 233/458/30
f 231/456/31 230/446/31 235/454/31 234/457/31
f 229/445/32 232/459/32 233/460/32 236/453/32
