# Blender v2.79 (sub 0) OBJ File: ''
# www.blender.org
mtllib trin_pilocrap_door_r.mtl
o $door_R
v 0.062500 0.031250 -0.625000
v 0.062500 0.031250 0.625000
v 0.125000 0.031250 0.625000
v 0.125000 0.031250 -0.625000
v 0.156250 -0.218750 -0.625000
v 0.156250 -0.218750 0.625000
v 0.062500 -0.218750 0.625000
v 0.062500 -0.218750 -0.625000
v -0.125000 0.781250 0.562500
v -0.125000 0.781250 0.625000
v -0.062500 0.781250 0.625000
v -0.062500 0.781250 0.562500
v 0.125000 0.031250 0.562500
v 0.125000 0.031250 0.625000
v 0.062500 0.031250 0.625000
v 0.062500 0.031250 0.562500
v -0.125000 0.781250 -0.625000
v -0.125000 0.781250 -0.562500
v -0.062500 0.781250 -0.562500
v -0.062500 0.781250 -0.625000
v 0.125000 0.031250 -0.625000
v 0.125000 0.031250 -0.562500
v 0.062500 0.031250 -0.562500
v 0.062500 0.031250 -0.625000
v -0.125000 0.843750 -0.625000
v -0.125000 0.843750 0.625000
v -0.062500 0.781250 0.625000
v -0.062500 0.781250 -0.625000
v -0.062500 0.781250 -0.625000
v -0.062500 0.781250 0.625000
v -0.125000 0.781250 0.625000
v -0.125000 0.781250 -0.625000
v 0.031250 -0.031250 -0.500000
v 0.031250 -0.031250 -0.312500
v 0.156250 -0.031250 -0.312500
v 0.156250 -0.031250 -0.500000
v 0.156250 -0.093750 -0.500000
v 0.156250 -0.093750 -0.312500
v 0.031250 -0.093750 -0.312500
v 0.031250 -0.093750 -0.500000
v 0.062500 -0.218750 -0.625000
v 0.062500 -0.218750 0.625000
v 0.156250 -0.218750 0.625000
v 0.156250 -0.218750 -0.625000
v 0.156250 -0.531250 -0.625000
v 0.156250 -0.531250 0.625000
v 0.062500 -0.531250 0.625000
v 0.062500 -0.531250 -0.625000
v 0.062500 -0.531250 -0.625000
v 0.062500 -0.531250 0.625000
v 0.156250 -0.531250 0.625000
v 0.156250 -0.531250 -0.625000
v 0.125000 -0.843750 -0.625000
v 0.125000 -0.843750 0.625000
v 0.062500 -0.843750 0.625000
v 0.062500 -0.843750 -0.625000
vt 1.097656 0.984375
vt 1.136719 0.984375
vt 1.136719 0.992188
vt 1.097656 0.992188
vt 1.136719 0.984375
vt 1.175781 0.984375
vt 1.175781 0.992188
vt 1.136719 0.992188
vt 1.097656 0.953125
vt 1.136719 0.953125
vt 1.177734 0.984375
vt 1.138672 0.984375
vt 1.138672 0.953125
vt 1.177734 0.953125
vt 1.095703 0.984375
vt 1.095703 0.953125
vt 1.222656 0.984375
vt 1.224609 0.984375
vt 1.224609 0.992188
vt 1.222656 0.992188
vt 1.224609 0.984375
vt 1.226562 0.984375
vt 1.226562 0.992188
vt 1.224609 0.992188
vt 1.222656 0.890625
vt 1.224609 0.890625
vt 1.228516 0.984375
vt 1.226562 0.984375
vt 1.226562 0.890625
vt 1.228516 0.890625
vt 1.220703 0.984375
vt 1.220703 0.890625
vt 1.238281 0.984375
vt 1.240234 0.984375
vt 1.240234 0.992188
vt 1.238281 0.992188
vt 1.240234 0.984375
vt 1.242188 0.984375
vt 1.242188 0.992188
vt 1.240234 0.992188
vt 1.238281 0.890625
vt 1.240234 0.890625
vt 1.244141 0.984375
vt 1.242188 0.984375
vt 1.242188 0.890625
vt 1.244141 0.890625
vt 1.236328 0.984375
vt 1.236328 0.890625
vt 1.253906 0.984375
vt 1.292969 0.984375
vt 1.292969 0.992188
vt 1.253906 0.992188
vt 1.292969 0.984375
vt 1.332031 0.984375
vt 1.332031 0.992188
vt 1.292969 0.992188
vt 1.253906 0.976562
vt 1.292969 0.976562
vt 1.333984 0.984375
vt 1.294922 0.984375
vt 1.294922 0.976562
vt 1.333984 0.976562
vt 1.251953 0.984375
vt 1.251953 0.976562
vt 1.458984 0.976562
vt 1.464844 0.976562
vt 1.464844 0.992188
vt 1.458984 0.992188
vt 1.464844 0.976562
vt 1.470703 0.976562
vt 1.470703 0.992188
vt 1.464844 0.992188
vt 1.458984 0.968750
vt 1.464844 0.968750
vt 1.474609 0.976562
vt 1.468750 0.976562
vt 1.468750 0.968750
vt 1.474609 0.968750
vt 1.455078 0.976562
vt 1.455078 0.968750
vt 1.582031 0.984375
vt 1.621094 0.984375
vt 1.621094 0.992188
vt 1.582031 0.992188
vt 1.621094 0.984375
vt 1.660156 0.984375
vt 1.660156 0.992188
vt 1.621094 0.992188
vt 1.582031 0.945312
vt 1.621094 0.945312
vt 1.662109 0.984375
vt 1.623047 0.984375
vt 1.623047 0.945312
vt 1.662109 0.945312
vt 1.580078 0.984375
vt 1.580078 0.945312
vt 1.675781 0.984375
vt 1.714844 0.984375
vt 1.714844 0.992188
vt 1.675781 0.992188
vt 1.714844 0.984375
vt 1.753906 0.984375
vt 1.753906 0.992188
vt 1.714844 0.992188
vt 1.675781 0.945312
vt 1.714844 0.945312
vt 1.755859 0.984375
vt 1.716797 0.984375
vt 1.716797 0.945312
vt 1.755859 0.945312
vt 1.673828 0.984375
vt 1.673828 0.945312
vn 0.0000 1.0000 0.0000
vn 0.0000 -1.0000 -0.0000
vn -1.0000 0.0000 0.0000
vn 0.9923 0.1240 0.0000
vn 0.0000 -0.0000 1.0000
vn 0.0000 0.0000 -1.0000
vn -0.9701 -0.2425 0.0000
vn 0.9701 0.2425 0.0000
vn 0.7071 0.7071 0.0000
vn 0.0000 0.0000 0.0000
vn 1.0000 0.0000 0.0000
vn 0.9950 -0.0995 -0.0000
usemtl ModelMaterial.002
s 1
f 1/1/1 2/2/1 3/3/1 4/4/1
f 5/5/2 6/6/2 7/7/2 8/8/2
f 2/2/3 1/1/3 8/9/3 7/10/3
f 4/11/4 3/12/4 6/13/4 5/14/4
f 3/12/5 2/2/5 7/10/5 6/13/5
f 1/1/6 4/15/6 5/16/6 8/9/6
f 9/17/1 10/18/1 11/19/1 12/20/1
f 13/21/2 14/22/2 15/23/2 16/24/2
f 10/18/7 9/17/7 16/25/7 15/26/7
f 12/27/8 11/28/8 14/29/8 13/30/8
f 11/28/5 10/18/5 15/26/5 14/29/5
f 9/17/6 12/31/6 13/32/6 16/25/6
f 17/33/1 18/34/1 19/35/1 20/36/1
f 21/37/2 22/38/2 23/39/2 24/40/2
f 18/34/7 17/33/7 24/41/7 23/42/7
f 20/43/8 19/44/8 22/45/8 21/46/8
f 19/44/5 18/34/5 23/42/5 22/45/5
f 17/33/6 20/47/6 21/48/6 24/41/6
f 25/49/9 26/50/9 27/51/9 28/52/9
f 29/53/2 30/54/2 31/55/2 32/56/2
f 26/50/3 25/49/3 32/57/3 31/58/3
f 28/59/10 27/60/10 30/61/10 29/62/10
f 27/60/10 26/50/5 31/58/5 30/61/10
f 25/49/6 28/63/6 29/64/6 32/57/6
f 33/65/1 34/66/1 35/67/1 36/68/1
f 37/69/2 38/70/2 39/71/2 40/72/2
f 34/66/3 33/65/3 40/73/3 39/74/3
f 36/75/11 35/76/11 38/77/11 37/78/11
f 35/76/5 34/66/5 39/74/5 38/77/5
f 33/65/6 36/79/6 37/80/6 40/73/6
f 41/81/1 42/82/1 43/83/1 44/84/1
f 45/85/2 46/86/2 47/87/2 48/88/2
f 42/82/3 41/81/3 48/89/3 47/90/3
f 44/91/11 43/92/11 46/93/11 45/94/11
f 43/92/5 42/82/5 47/90/5 46/93/5
f 41/81/6 44/95/6 45/96/6 48/89/6
f 49/97/1 50/98/1 51/99/1 52/100/1
f 53/101/2 54/102/2 55/103/2 56/104/2
f 50/98/3 49/97/3 56/105/3 55/106/3
f 52/107/12 51/108/12 54/109/12 53/110/12
f 51/108/5 50/98/5 55/106/5 54/109/5
f 49/97/6 52/111/6 53/112/6 56/105/6
o $door_R_mirrored
v -0.062500 0.031250 -0.625000
v -0.062500 0.031250 0.625000
v -0.125000 0.031250 0.625000
v -0.125000 0.031250 -0.625000
v -0.156250 -0.218750 -0.625000
v -0.156250 -0.218750 0.625000
v -0.062500 -0.218750 0.625000
v -0.062500 -0.218750 -0.625000
v 0.125000 0.781250 0.562500
v 0.125000 0.781250 0.625000
v 0.062500 0.781250 0.625000
v 0.062500 0.781250 0.562500
v -0.125000 0.031250 0.562500
v -0.125000 0.031250 0.625000
v -0.062500 0.031250 0.625000
v -0.062500 0.031250 0.562500
v 0.125000 0.781250 -0.625000
v 0.125000 0.781250 -0.562500
v 0.062500 0.781250 -0.562500
v 0.062500 0.781250 -0.625000
v -0.125000 0.031250 -0.625000
v -0.125000 0.031250 -0.562500
v -0.062500 0.031250 -0.562500
v -0.062500 0.031250 -0.625000
v 0.125000 0.843750 -0.625000
v 0.125000 0.843750 0.625000
v 0.062500 0.781250 0.625000
v 0.062500 0.781250 -0.625000
v 0.062500 0.781250 -0.625000
v 0.062500 0.781250 0.625000
v 0.125000 0.781250 0.625000
v 0.125000 0.781250 -0.625000
v -0.031250 -0.031250 -0.500000
v -0.031250 -0.031250 -0.312500
v -0.156250 -0.031250 -0.312500
v -0.156250 -0.031250 -0.500000
v -0.156250 -0.093750 -0.500000
v -0.156250 -0.093750 -0.312500
v -0.031250 -0.093750 -0.312500
v -0.031250 -0.093750 -0.500000
v -0.062500 -0.218750 -0.625000
v -0.062500 -0.218750 0.625000
v -0.156250 -0.218750 0.625000
v -0.156250 -0.218750 -0.625000
v -0.156250 -0.531250 -0.625000
v -0.156250 -0.531250 0.625000
v -0.062500 -0.531250 0.625000
v -0.062500 -0.531250 -0.625000
v -0.062500 -0.531250 -0.625000
v -0.062500 -0.531250 0.625000
v -0.156250 -0.531250 0.625000
v -0.156250 -0.531250 -0.625000
v -0.125000 -0.843750 -0.625000
v -0.125000 -0.843750 0.625000
v -0.062500 -0.843750 0.625000
v -0.062500 -0.843750 -0.625000
vt 1.097656 0.984375
vt 1.097656 0.992188
vt 1.136719 0.992188
vt 1.136719 0.984375
vt 1.136719 0.984375
vt 1.136719 0.992188
vt 1.175781 0.992188
vt 1.175781 0.984375
vt 1.136719 0.953125
vt 1.097656 0.953125
vt 1.177734 0.984375
vt 1.177734 0.953125
vt 1.138672 0.953125
vt 1.138672 0.984375
vt 1.095703 0.953125
vt 1.095703 0.984375
vt 1.222656 0.984375
vt 1.222656 0.992188
vt 1.224609 0.992188
vt 1.224609 0.984375
vt 1.224609 0.984375
vt 1.224609 0.992188
vt 1.226562 0.992188
vt 1.226562 0.984375
vt 1.224609 0.890625
vt 1.222656 0.890625
vt 1.228516 0.984375
vt 1.228516 0.890625
vt 1.226562 0.890625
vt 1.226562 0.984375
vt 1.220703 0.890625
vt 1.220703 0.984375
vt 1.238281 0.984375
vt 1.238281 0.992188
vt 1.240234 0.992188
vt 1.240234 0.984375
vt 1.240234 0.984375
vt 1.240234 0.992188
vt 1.242188 0.992188
vt 1.242188 0.984375
vt 1.240234 0.890625
vt 1.238281 0.890625
vt 1.244141 0.984375
vt 1.244141 0.890625
vt 1.242188 0.890625
vt 1.242188 0.984375
vt 1.236328 0.890625
vt 1.236328 0.984375
vt 1.253906 0.984375
vt 1.253906 0.992188
vt 1.292969 0.992188
vt 1.292969 0.984375
vt 1.292969 0.984375
vt 1.292969 0.992188
vt 1.332031 0.992188
vt 1.332031 0.984375
vt 1.292969 0.976562
vt 1.253906 0.976562
vt 1.333984 0.984375
vt 1.333984 0.976562
vt 1.294922 0.976562
vt 1.294922 0.984375
vt 1.251953 0.976562
vt 1.251953 0.984375
vt 1.458984 0.976562
vt 1.458984 0.992188
vt 1.464844 0.992188
vt 1.464844 0.976562
vt 1.464844 0.976562
vt 1.464844 0.992188
vt 1.470703 0.992188
vt 1.470703 0.976562
vt 1.464844 0.968750
vt 1.458984 0.968750
vt 1.474609 0.976562
vt 1.474609 0.968750
vt 1.468750 0.968750
vt 1.468750 0.976562
vt 1.455078 0.968750
vt 1.455078 0.976562
vt 1.582031 0.984375
vt 1.582031 0.992188
vt 1.621094 0.992188
vt 1.621094 0.984375
vt 1.621094 0.984375
vt 1.621094 0.992188
vt 1.660156 0.992188
vt 1.660156 0.984375
vt 1.621094 0.945312
vt 1.582031 0.945312
vt 1.662109 0.984375
vt 1.662109 0.945312
vt 1.623047 0.945312
vt 1.623047 0.984375
vt 1.580078 0.945312
vt 1.580078 0.984375
vt 1.675781 0.984375
vt 1.675781 0.992188
vt 1.714844 0.992188
vt 1.714844 0.984375
vt 1.714844 0.984375
vt 1.714844 0.992188
vt 1.753906 0.992188
vt 1.753906 0.984375
vt 1.714844 0.945312
vt 1.675781 0.945312
vt 1.755859 0.984375
vt 1.755859 0.945312
vt 1.716797 0.945312
vt 1.716797 0.984375
vt 1.673828 0.945312
vt 1.673828 0.984375
vn 0.0000 1.0000 0.0000
vn 0.0000 -1.0000 -0.0000
vn 1.0000 0.0000 0.0000
vn -0.9923 0.1240 0.0000
vn 0.0000 -0.0000 1.0000
vn 0.0000 0.0000 -1.0000
vn 0.9701 -0.2425 0.0000
vn -0.9701 0.2425 0.0000
vn -0.7071 0.7071 0.0000
vn 0.0000 0.0000 0.0000
vn -1.0000 0.0000 0.0000
vn -0.9950 -0.0995 -0.0000
usemtl ModelMaterial.003
s 1
f 57/113/13 60/114/13 59/115/13 58/116/13
f 61/117/14 64/118/14 63/119/14 62/120/14
f 58/116/15 63/121/15 64/122/15 57/113/15
f 60/123/16 61/124/16 62/125/16 59/126/16
f 59/126/17 62/125/17 63/121/17 58/116/17
f 57/113/18 64/122/18 61/127/18 60/128/18
f 65/129/13 68/130/13 67/131/13 66/132/13
f 69/133/14 72/134/14 71/135/14 70/136/14
f 66/132/19 71/137/19 72/138/19 65/129/19
f 68/139/20 69/140/20 70/141/20 67/142/20
f 67/142/17 70/141/17 71/137/17 66/132/17
f 65/129/18 72/138/18 69/143/18 68/144/18
f 73/145/13 76/146/13 75/147/13 74/148/13
f 77/149/14 80/150/14 79/151/14 78/152/14
f 74/148/19 79/153/19 80/154/19 73/145/19
f 76/155/20 77/156/20 78/157/20 75/158/20
f 75/158/17 78/157/17 79/153/17 74/148/17
f 73/145/18 80/154/18 77/159/18 76/160/18
f 81/161/21 84/162/21 83/163/21 82/164/21
f 85/165/14 88/166/14 87/167/14 86/168/14
f 82/164/15 87/169/15 88/170/15 81/161/15
f 84/171/22 85/172/22 86/173/22 83/174/22
f 83/174/22 86/173/22 87/169/17 82/164/17
f 81/161/18 88/170/18 85/175/18 84/176/18
f 89/177/13 92/178/13 91/179/13 90/180/13
f 93/181/14 96/182/14 95/183/14 94/184/14
f 90/180/15 95/185/15 96/186/15 89/177/15
f 92/187/23 93/188/23 94/189/23 91/190/23
f 91/190/17 94/189/17 95/185/17 90/180/17
f 89/177/18 96/186/18 93/191/18 92/192/18
f 97/193/13 100/194/13 99/195/13 98/196/13
f 101/197/14 104/198/14 103/199/14 102/200/14
f 98/196/15 103/201/15 104/202/15 97/193/15
f 100/203/23 101/204/23 102/205/23 99/206/23
f 99/206/17 102/205/17 103/201/17 98/196/17
f 97/193/18 104/202/18 101/207/18 100/208/18
f 105/209/13 108/210/13 107/211/13 106/212/13
f 109/213/14 112/214/14 111/215/14 110/216/14
f 106/212/15 111/217/15 112/218/15 105/209/15
f 108/219/24 109/220/24 110/221/24 107/222/24
f 107/222/17 110/221/17 111/217/17 106/212/17
f 105/209/18 112/218/18 109/223/18 108/224/18
