# Blender v2.79 (sub 0) OBJ File: ''
# www.blender.org
mtllib trin_pilocrap_boot.mtl
o $&RightTurnLight_ff6600_FFC00_111
v -1.156250 -0.531250 -0.296875
v -0.968750 -0.531250 -0.296875
v -0.968750 -0.593750 -0.296875
v -1.156250 -0.593750 -0.296875
vt 1.070312 0.781250
vt 1.064453 0.781250
vt 1.064453 0.773438
vt 1.070312 0.773438
vn 0.0000 0.0000 -1.0000
usemtl ModelMaterial.007
s off
f 1/1/1 2/2/1 3/3/1 4/4/1
o $&LeftTurnLight_ff6600_FFC00_111
v 0.968750 -0.531250 -0.296875
v 1.156250 -0.531250 -0.296875
v 1.156250 -0.593750 -0.296875
v 0.968750 -0.593750 -0.296875
vt 1.164062 0.781250
vt 1.158203 0.781250
vt 1.158203 0.773438
vt 1.164062 0.773438
vn 0.0000 0.0000 -1.0000
usemtl ModelMaterial.007
s off
f 5/5/2 6/6/2 7/7/2 8/8/2
o $&BackupLight_ffffcc_FFFFF_111
v -1.156250 -0.281250 -0.296875
v -0.968750 -0.281250 -0.296875
v -0.968750 -0.406250 -0.296875
v -1.156250 -0.406250 -0.296875
v 0.968750 -0.281250 -0.296875
v 1.156250 -0.281250 -0.296875
v 1.156250 -0.406250 -0.296875
v 0.968750 -0.406250 -0.296875
vt 1.929688 0.843750
vt 1.923828 0.843750
vt 1.923828 0.828125
vt 1.929688 0.828125
vt 1.289062 0.781250
vt 1.283203 0.781250
vt 1.283203 0.765625
vt 1.289062 0.765625
vn 0.0000 0.0000 -1.0000
usemtl ModelMaterial.007
s off
f 9/9/3 10/10/3 11/11/3 12/12/3
f 13/13/3 14/14/3 15/15/3 16/16/3
o $&BrakeLight_e60000_FFFFF_111
v -1.156250 -0.156250 -0.296875
v -0.968750 -0.156250 -0.296875
v -0.968750 -0.281250 -0.296875
v -1.156250 -0.281250 -0.296875
v 0.968750 -0.156250 -0.296875
v 1.156250 -0.156250 -0.296875
v 1.156250 -0.281250 -0.296875
v 0.968750 -0.281250 -0.296875
v -0.093750 -0.156250 -0.296875
v 0.093750 -0.156250 -0.296875
v 0.093750 -0.218750 -0.296875
v -0.093750 -0.218750 -0.296875
vt 1.695312 0.843750
vt 1.689453 0.843750
vt 1.689453 0.828125
vt 1.695312 0.828125
vt 1.367188 0.781250
vt 1.361328 0.781250
vt 1.361328 0.765625
vt 1.367188 0.765625
vt 1.398438 0.781250
vt 1.392578 0.781250
vt 1.392578 0.773438
vt 1.398438 0.773438
vn 0.0000 0.0000 -1.0000
usemtl ModelMaterial.007
s off
f 17/17/4 18/18/4 19/19/4 20/20/4
f 21/21/4 22/22/4 23/23/4 24/24/4
f 25/25/4 26/26/4 27/27/4 28/28/4
o $&RunningLight_e60000_FFFFF_111
v -1.156250 -0.406250 -0.296875
v -0.968750 -0.406250 -0.296875
v -0.968750 -0.531250 -0.296875
v -1.156250 -0.531250 -0.296875
v 0.968750 -0.406250 -0.296875
v 1.156250 -0.406250 -0.296875
v 1.156250 -0.531250 -0.296875
v 0.968750 -0.531250 -0.296875
vt 1.007812 0.781250
vt 1.001953 0.781250
vt 1.001953 0.765625
vt 1.007812 0.765625
vt 1.226562 0.781250
vt 1.220703 0.781250
vt 1.220703 0.765625
vt 1.226562 0.765625
vn 0.0000 0.0000 -1.0000
usemtl ModelMaterial.007
s off
f 29/29/5 30/30/5 31/31/5 32/32/5
f 33/33/5 34/34/5 35/35/5 36/36/5
o $boot
v -1.281250 -0.656250 -0.281250
v -1.343750 -0.656250 -0.218750
v 1.343750 -0.656250 -0.218750
v 1.281250 -0.656250 -0.281250
v 1.250000 -0.781250 -0.281250
v 1.312500 -0.781250 -0.218750
v -1.312500 -0.781250 -0.218750
v -1.250000 -0.781250 -0.281250
v -1.281250 -0.343750 -0.281250
v -1.343750 -0.343750 -0.218750
v 1.343750 -0.343750 -0.218750
v 1.281250 -0.343750 -0.281250
v 1.281250 -0.656250 -0.281250
v 1.343750 -0.656250 -0.218750
v -1.343750 -0.656250 -0.218750
v -1.281250 -0.656250 -0.281250
v -1.250000 -0.093750 -0.281250
v -1.312500 -0.093750 -0.218750
v 1.312500 -0.093750 -0.218750
v 1.250000 -0.093750 -0.281250
v 1.281250 -0.343750 -0.281250
v 1.343750 -0.343750 -0.218750
v -1.343750 -0.343750 -0.218750
v -1.281250 -0.343750 -0.281250
v 1.000000 0.656250 0.343750
v 1.000000 0.656250 0.406250
v 1.125000 0.656250 0.406250
v 1.062500 0.656250 0.343750
v 1.250000 -0.093750 -0.281250
v 1.312500 -0.093750 -0.218750
v 1.187500 -0.093750 -0.218750
v 1.187500 -0.093750 -0.281250
v -1.062500 0.656250 0.343750
v -1.125000 0.656250 0.406250
v -1.000000 0.656250 0.406250
v -1.000000 0.656250 0.343750
v -1.187500 -0.093750 -0.281250
v -1.187500 -0.093750 -0.218750
v -1.312500 -0.093750 -0.218750
v -1.250000 -0.093750 -0.281250
v -1.062500 0.656250 0.343750
v -1.062500 0.718750 0.406250
v 1.062500 0.718750 0.406250
v 1.062500 0.656250 0.343750
v 1.062500 0.656250 0.343750
v 1.125000 0.656250 0.406250
v -1.125000 0.656250 0.406250
v -1.062500 0.656250 0.343750
v -1.156250 -0.156250 -0.296875
v -1.156250 -0.156250 -0.234375
v -0.968750 -0.156250 -0.234375
v -0.968750 -0.156250 -0.296875
v -0.968750 -0.281250 -0.296875
v -0.968750 -0.281250 -0.234375
v -1.156250 -0.281250 -0.234375
v -1.156250 -0.281250 -0.296875
v -1.156250 -0.281250 -0.296875
v -1.156250 -0.281250 -0.234375
v -0.968750 -0.281250 -0.234375
v -0.968750 -0.281250 -0.296875
v -0.968750 -0.406250 -0.296875
v -0.968750 -0.406250 -0.234375
v -1.156250 -0.406250 -0.234375
v -1.156250 -0.406250 -0.296875
v -1.156250 -0.406250 -0.296875
v -1.156250 -0.406250 -0.234375
v -0.968750 -0.406250 -0.234375
v -0.968750 -0.406250 -0.296875
v -0.968750 -0.531250 -0.296875
v -0.968750 -0.531250 -0.234375
v -1.156250 -0.531250 -0.234375
v -1.156250 -0.531250 -0.296875
v -1.156250 -0.531250 -0.296875
v -1.156250 -0.531250 -0.234375
v -0.968750 -0.531250 -0.234375
v -0.968750 -0.531250 -0.296875
v -0.968750 -0.593750 -0.296875
v -0.968750 -0.593750 -0.234375
v -1.156250 -0.593750 -0.234375
v -1.156250 -0.593750 -0.296875
v 0.968750 -0.531250 -0.296875
v 0.968750 -0.531250 -0.234375
v 1.156250 -0.531250 -0.234375
v 1.156250 -0.531250 -0.296875
v 1.156250 -0.593750 -0.296875
v 1.156250 -0.593750 -0.234375
v 0.968750 -0.593750 -0.234375
v 0.968750 -0.593750 -0.296875
v 0.968750 -0.406250 -0.296875
v 0.968750 -0.406250 -0.234375
v 1.156250 -0.406250 -0.234375
v 1.156250 -0.406250 -0.296875
v 1.156250 -0.531250 -0.296875
v 1.156250 -0.531250 -0.234375
v 0.968750 -0.531250 -0.234375
v 0.968750 -0.531250 -0.296875
v 0.968750 -0.281250 -0.296875
v 0.968750 -0.281250 -0.234375
v 1.156250 -0.281250 -0.234375
v 1.156250 -0.281250 -0.296875
v 1.156250 -0.406250 -0.296875
v 1.156250 -0.406250 -0.234375
v 0.968750 -0.406250 -0.234375
v 0.968750 -0.406250 -0.296875
v 0.968750 -0.156250 -0.296875
v 0.968750 -0.156250 -0.234375
v 1.156250 -0.156250 -0.234375
v 1.156250 -0.156250 -0.296875
v 1.156250 -0.281250 -0.296875
v 1.156250 -0.281250 -0.234375
v 0.968750 -0.281250 -0.234375
v 0.968750 -0.281250 -0.296875
v -0.750000 -0.593750 -0.296875
v -0.750000 -0.593750 -0.234375
v -0.500000 -0.593750 -0.234375
v -0.500000 -0.593750 -0.296875
v -0.500000 -0.718750 -0.296875
v -0.500000 -0.718750 -0.234375
v -0.750000 -0.718750 -0.234375
v -0.750000 -0.718750 -0.296875
v -0.093750 -0.156250 -0.296875
v -0.093750 -0.156250 -0.234375
v 0.093750 -0.156250 -0.234375
v 0.093750 -0.156250 -0.296875
v 0.093750 -0.218750 -0.296875
v 0.093750 -0.218750 -0.234375
v -0.093750 -0.218750 -0.234375
v -0.093750 -0.218750 -0.296875
v -0.125000 -0.656250 -0.296875
v -0.125000 -0.656250 -0.234375
v 0.125000 -0.656250 -0.234375
v 0.125000 -0.656250 -0.296875
v 0.125000 -0.718750 -0.296875
v 0.125000 -0.718750 -0.234375
v -0.125000 -0.718750 -0.234375
v -0.125000 -0.718750 -0.296875
v 0.750000 -0.156250 -0.296875
v 0.750000 -0.156250 -0.234375
v 0.875000 -0.156250 -0.234375
v 0.875000 -0.156250 -0.296875
v 0.875000 -0.281250 -0.296875
v 0.875000 -0.281250 -0.234375
v 0.750000 -0.281250 -0.234375
v 0.750000 -0.281250 -0.296875
vt 1.662109 0.476562
vt 1.664062 0.476562
vt 1.664062 0.804688
vt 1.662109 0.804688
vt 1.664062 0.476562
vt 1.666016 0.476562
vt 1.666016 0.804688
vt 1.664062 0.804688
vt 1.662109 0.460938
vt 1.664062 0.460938
vt 1.748047 0.476562
vt 1.746094 0.476562
vt 1.746094 0.460938
vt 1.748047 0.460938
vt 1.580078 0.476562
vt 1.580078 0.460938
vt 1.097656 0.359375
vt 1.099609 0.359375
vt 1.099609 0.679688
vt 1.097656 0.679688
vt 1.099609 0.359375
vt 1.101562 0.359375
vt 1.101562 0.679688
vt 1.099609 0.679688
vt 1.097656 0.320312
vt 1.099609 0.320312
vt 1.181641 0.359375
vt 1.179688 0.359375
vt 1.179688 0.320312
vt 1.181641 0.320312
vt 1.017578 0.359375
vt 1.017578 0.320312
vt 1.503906 0.359375
vt 1.505859 0.359375
vt 1.505859 0.679688
vt 1.503906 0.679688
vt 1.505859 0.359375
vt 1.507812 0.359375
vt 1.507812 0.679688
vt 1.505859 0.679688
vt 1.503906 0.328125
vt 1.505859 0.328125
vt 1.587891 0.359375
vt 1.585938 0.359375
vt 1.585938 0.328125
vt 1.587891 0.328125
vt 1.423828 0.359375
vt 1.423828 0.328125
vt 1.990234 0.851562
vt 1.992188 0.851562
vt 1.992188 0.867188
vt 1.990234 0.867188
vt 1.992188 0.851562
vt 1.994141 0.851562
vt 1.994141 0.867188
vt 1.992188 0.867188
vt 1.990234 0.757812
vt 1.992188 0.757812
vt 1.998047 0.851562
vt 1.996094 0.851562
vt 1.996094 0.757812
vt 1.998047 0.757812
vt 1.986328 0.851562
vt 1.986328 0.757812
vt 1.271484 0.789062
vt 1.273438 0.789062
vt 1.273438 0.804688
vt 1.271484 0.804688
vt 1.273438 0.789062
vt 1.275391 0.789062
vt 1.275391 0.804688
vt 1.273438 0.804688
vt 1.271484 0.695312
vt 1.273438 0.695312
vt 1.279297 0.789062
vt 1.277344 0.789062
vt 1.277344 0.695312
vt 1.279297 0.695312
vt 1.267578 0.789062
vt 1.267578 0.695312
vt 1.255859 0.351562
vt 1.257812 0.351562
vt 1.257812 0.617188
vt 1.255859 0.617188
vt 1.257812 0.351562
vt 1.259766 0.351562
vt 1.259766 0.617188
vt 1.257812 0.617188
vt 1.255859 0.343750
vt 1.257812 0.343750
vt 1.326172 0.351562
vt 1.324219 0.351562
vt 1.324219 0.343750
vt 1.326172 0.343750
vt 1.189453 0.351562
vt 1.189453 0.343750
vt 1.695312 0.843750
vt 1.697266 0.843750
vt 1.697266 0.867188
vt 1.695312 0.867188
vt 1.697266 0.843750
vt 1.699219 0.843750
vt 1.699219 0.867188
vt 1.697266 0.867188
vt 1.695312 0.828125
vt 1.697266 0.828125
vt 1.705078 0.843750
vt 1.703125 0.843750
vt 1.703125 0.828125
vt 1.705078 0.828125
vt 1.929688 0.843750
vt 1.931641 0.843750
vt 1.931641 0.867188
vt 1.929688 0.867188
vt 1.931641 0.843750
vt 1.933594 0.843750
vt 1.933594 0.867188
vt 1.931641 0.867188
vt 1.929688 0.828125
vt 1.931641 0.828125
vt 1.939453 0.843750
vt 1.937500 0.843750
vt 1.937500 0.828125
vt 1.939453 0.828125
vt 1.007812 0.781250
vt 1.009766 0.781250
vt 1.009766 0.804688
vt 1.007812 0.804688
vt 1.009766 0.781250
vt 1.011719 0.781250
vt 1.011719 0.804688
vt 1.009766 0.804688
vt 1.007812 0.765625
vt 1.009766 0.765625
vt 1.017578 0.781250
vt 1.015625 0.781250
vt 1.015625 0.765625
vt 1.017578 0.765625
vt 1.070312 0.781250
vt 1.072266 0.781250
vt 1.072266 0.804688
vt 1.070312 0.804688
vt 1.072266 0.781250
vt 1.074219 0.781250
vt 1.074219 0.804688
vt 1.072266 0.804688
vt 1.070312 0.773438
vt 1.072266 0.773438
vt 1.080078 0.781250
vt 1.078125 0.781250
vt 1.078125 0.773438
vt 1.080078 0.773438
vt 1.164062 0.781250
vt 1.166016 0.781250
vt 1.166016 0.804688
vt 1.164062 0.804688
vt 1.166016 0.781250
vt 1.167969 0.781250
vt 1.167969 0.804688
vt 1.166016 0.804688
vt 1.164062 0.773438
vt 1.166016 0.773438
vt 1.173828 0.781250
vt 1.171875 0.781250
vt 1.171875 0.773438
vt 1.173828 0.773438
vt 1.226562 0.781250
vt 1.228516 0.781250
vt 1.228516 0.804688
vt 1.226562 0.804688
vt 1.228516 0.781250
vt 1.230469 0.781250
vt 1.230469 0.804688
vt 1.228516 0.804688
vt 1.226562 0.765625
vt 1.228516 0.765625
vt 1.236328 0.781250
vt 1.234375 0.781250
vt 1.234375 0.765625
vt 1.236328 0.765625
vt 1.289062 0.781250
vt 1.291016 0.781250
vt 1.291016 0.804688
vt 1.289062 0.804688
vt 1.291016 0.781250
vt 1.292969 0.781250
vt 1.292969 0.804688
vt 1.291016 0.804688
vt 1.289062 0.765625
vt 1.291016 0.765625
vt 1.298828 0.781250
vt 1.296875 0.781250
vt 1.296875 0.765625
vt 1.298828 0.765625
vt 1.367188 0.781250
vt 1.369141 0.781250
vt 1.369141 0.804688
vt 1.367188 0.804688
vt 1.369141 0.781250
vt 1.371094 0.781250
vt 1.371094 0.804688
vt 1.369141 0.804688
vt 1.367188 0.765625
vt 1.369141 0.765625
vt 1.376953 0.781250
vt 1.375000 0.781250
vt 1.375000 0.765625
vt 1.376953 0.765625
vt 1.416016 0.960938
vt 1.417969 0.960938
vt 1.417969 0.992188
vt 1.416016 0.992188
vt 1.417969 0.960938
vt 1.419922 0.960938
vt 1.419922 0.992188
vt 1.417969 0.992188
vt 1.416016 0.945312
vt 1.417969 0.945312
vt 1.427734 0.960938
vt 1.425781 0.960938
vt 1.425781 0.945312
vt 1.427734 0.945312
vt 1.408203 0.960938
vt 1.408203 0.945312
vt 1.398438 0.781250
vt 1.400391 0.781250
vt 1.400391 0.804688
vt 1.398438 0.804688
vt 1.400391 0.781250
vt 1.402344 0.781250
vt 1.402344 0.804688
vt 1.400391 0.804688
vt 1.398438 0.773438
vt 1.400391 0.773438
vt 1.408203 0.781250
vt 1.406250 0.781250
vt 1.406250 0.773438
vt 1.408203 0.773438
vt 1.447266 0.960938
vt 1.449219 0.960938
vt 1.449219 0.992188
vt 1.447266 0.992188
vt 1.449219 0.960938
vt 1.451172 0.960938
vt 1.451172 0.992188
vt 1.449219 0.992188
vt 1.447266 0.953125
vt 1.449219 0.953125
vt 1.458984 0.960938
vt 1.457031 0.960938
vt 1.457031 0.953125
vt 1.458984 0.953125
vt 1.439453 0.960938
vt 1.439453 0.953125
vt 1.476562 0.781250
vt 1.478516 0.781250
vt 1.478516 0.804688
vt 1.476562 0.804688
vt 1.478516 0.781250
vt 1.480469 0.781250
vt 1.480469 0.804688
vt 1.478516 0.804688
vt 1.476562 0.757812
vt 1.478516 0.757812
vt 1.486328 0.781250
vt 1.484375 0.781250
vt 1.484375 0.757812
vt 1.486328 0.757812
vt 1.470703 0.781250
vt 1.470703 0.757812
vn -0.0000 1.0000 0.0000
vn 0.0000 -1.0000 0.0000
vn -0.6963 -0.1741 -0.6963
vn 0.6963 -0.1741 -0.6963
vn -0.0000 0.0000 1.0000
vn 0.0000 0.0000 -1.0000
vn -0.7071 0.0000 -0.7071
vn 0.7071 0.0000 -0.7071
vn -0.7044 0.0880 -0.7044
vn 0.7044 0.0880 -0.7044
vn -0.9701 -0.2425 0.0000
vn 0.5613 0.6081 -0.5613
vn -0.0000 -0.6402 0.7682
vn 0.0000 0.6402 -0.7682
vn -0.5613 0.6081 -0.5613
vn 0.9701 -0.2425 0.0000
vn -0.0000 0.7071 -0.7071
vn -0.5774 0.5774 -0.5774
vn 0.5774 0.5774 -0.5774
vn -1.0000 0.0000 0.0000
vn 1.0000 0.0000 0.0000
usemtl ModelMaterial.007
s off
f 37/37/6 38/38/6 39/39/6 40/40/6
f 41/41/7 42/42/7 43/43/7 44/44/7
f 38/38/8 37/37/8 44/45/8 43/46/8
f 40/47/9 39/48/9 42/49/9 41/50/9
f 39/48/10 38/38/10 43/46/10 42/49/10
f 37/37/11 40/51/11 41/52/11 44/45/11
f 45/53/6 46/54/6 47/55/6 48/56/6
f 49/57/7 50/58/7 51/59/7 52/60/7
f 46/54/12 45/53/12 52/61/12 51/62/12
f 48/63/13 47/64/13 50/65/13 49/66/13
f 47/64/10 46/54/10 51/62/10 50/65/10
f 45/53/11 48/67/11 49/68/11 52/61/11
f 53/69/6 54/70/6 55/71/6 56/72/6
f 57/73/7 58/74/7 59/75/7 60/76/7
f 54/70/14 53/69/14 60/77/14 59/78/14
f 56/79/15 55/80/15 58/81/15 57/82/15
f 55/80/10 54/70/10 59/78/10 58/81/10
f 53/69/11 56/83/11 57/84/11 60/77/11
f 61/85/6 62/86/6 63/87/6 64/88/6
f 65/89/7 66/90/7 67/91/7 68/92/7
f 62/86/16 61/85/16 68/93/16 67/94/16
f 64/95/17 63/96/17 66/97/17 65/98/17
f 63/96/18 62/86/18 67/94/18 66/97/18
f 61/85/19 64/99/19 65/100/19 68/93/19
f 69/101/6 70/102/6 71/103/6 72/104/6
f 73/105/7 74/106/7 75/107/7 76/108/7
f 70/102/20 69/101/20 76/109/20 75/110/20
f 72/111/21 71/112/21 74/113/21 73/114/21
f 71/112/18 70/102/18 75/110/18 74/113/18
f 69/101/19 72/115/19 73/116/19 76/109/19
f 77/117/22 78/118/22 79/119/22 80/120/22
f 81/121/7 82/122/7 83/123/7 84/124/7
f 78/118/23 77/117/23 84/125/23 83/126/23
f 80/127/24 79/128/24 82/129/24 81/130/24
f 79/128/10 78/118/10 83/126/10 82/129/10
f 77/117/10 80/131/10 81/132/10 84/125/10
f 85/133/6 86/134/6 87/135/6 88/136/6
f 89/137/7 90/138/7 91/139/7 92/140/7
f 86/134/25 85/133/25 92/141/25 91/142/25
f 88/143/26 87/144/26 90/145/26 89/146/26
f 87/144/10 86/134/10 91/142/10 90/145/10
f 93/147/6 94/148/6 95/149/6 96/150/6
f 97/151/7 98/152/7 99/153/7 100/154/7
f 94/148/25 93/147/25 100/155/25 99/156/25
f 96/157/26 95/158/26 98/159/26 97/160/26
f 95/158/10 94/148/10 99/156/10 98/159/10
f 101/161/6 102/162/6 103/163/6 104/164/6
f 105/165/7 106/166/7 107/167/7 108/168/7
f 102/162/25 101/161/25 108/169/25 107/170/25
f 104/171/26 103/172/26 106/173/26 105/174/26
f 103/172/10 102/162/10 107/170/10 106/173/10
f 109/175/6 110/176/6 111/177/6 112/178/6
f 113/179/7 114/180/7 115/181/7 116/182/7
f 110/176/25 109/175/25 116/183/25 115/184/25
f 112/185/26 111/186/26 114/187/26 113/188/26
f 111/186/10 110/176/10 115/184/10 114/187/10
f 117/189/6 118/190/6 119/191/6 120/192/6
f 121/193/7 122/194/7 123/195/7 124/196/7
f 118/190/25 117/189/25 124/197/25 123/198/25
f 120/199/26 119/200/26 122/201/26 121/202/26
f 119/200/10 118/190/10 123/198/10 122/201/10
f 125/203/6 126/204/6 127/205/6 128/206/6
f 129/207/7 130/208/7 131/209/7 132/210/7
f 126/204/25 125/203/25 132/211/25 131/212/25
f 128/213/26 127/214/26 130/215/26 129/216/26
f 127/214/10 126/204/10 131/212/10 130/215/10
f 133/217/6 134/218/6 135/219/6 136/220/6
f 137/221/7 138/222/7 139/223/7 140/224/7
f 134/218/25 133/217/25 140/225/25 139/226/25
f 136/227/26 135/228/26 138/229/26 137/230/26
f 135/228/10 134/218/10 139/226/10 138/229/10
f 141/231/6 142/232/6 143/233/6 144/234/6
f 145/235/7 146/236/7 147/237/7 148/238/7
f 142/232/25 141/231/25 148/239/25 147/240/25
f 144/241/26 143/242/26 146/243/26 145/244/26
f 143/242/10 142/232/10 147/240/10 146/243/10
f 149/245/6 150/246/6 151/247/6 152/248/6
f 153/249/7 154/250/7 155/251/7 156/252/7
f 150/246/25 149/245/25 156/253/25 155/254/25
f 152/255/26 151/256/26 154/257/26 153/258/26
f 151/256/10 150/246/10 155/254/10 154/257/10
f 149/245/11 152/259/11 153/260/11 156/253/11
f 157/261/6 158/262/6 159/263/6 160/264/6
f 161/265/7 162/266/7 163/267/7 164/268/7
f 158/262/25 157/261/25 164/269/25 163/270/25
f 160/271/26 159/272/26 162/273/26 161/274/26
f 159/272/10 158/262/10 163/270/10 162/273/10
f 165/275/6 166/276/6 167/277/6 168/278/6
f 169/279/7 170/280/7 171/281/7 172/282/7
f 166/276/25 165/275/25 172/283/25 171/284/25
f 168/285/26 167/286/26 170/287/26 169/288/26
f 167/286/10 166/276/10 171/284/10 170/287/10
f 165/275/11 168/289/11 169/290/11 172/283/11
f 173/291/6 174/292/6 175/293/6 176/294/6
f 177/295/7 178/296/7 179/297/7 180/298/7
f 174/292/25 173/291/25 180/299/25 179/300/25
f 176/301/26 175/302/26 178/303/26 177/304/26
f 175/302/10 174/292/10 179/300/10 178/303/10
f 173/291/11 176/305/11 177/306/11 180/299/11
